<svg width="79" height="80" viewBox="0 0 79 80" fill="none" xmlns="http://www.w3.org/2000/svg">
<ellipse cx="41" cy="39.5" rx="36" ry="34.5" fill="white"/>
<g filter="url(#filter0_d_63_10)">
<path d="M49.819 39.0182L37.3524 30.2682C37.1784 30.1468 36.954 30.1334 36.7681 30.2343C36.5828 30.3352 36.4667 30.5336 36.4667 30.75V48.25C36.4667 48.4664 36.5828 48.6647 36.7687 48.7657C36.8514 48.8112 36.9427 48.8333 37.0333 48.8333C37.145 48.8333 37.2566 48.7989 37.3524 48.7318L49.819 39.9818C49.9737 39.8733 50.0667 39.6931 50.0667 39.5C50.0667 39.3069 49.9737 39.1267 49.819 39.0182ZM37.6 47.1457V31.8542L48.4942 39.5L37.6 47.1457Z" fill="#FF4F00"/>
</g>
<g clip-path="url(#clip0_63_10)">
<path d="M39.6629 0.0999756C38.886 0.212479 38.8422 0.23748 39.406 0.249977C39.6629 0.256226 40.0012 0.281227 40.1578 0.29998C40.8595 0.412476 39.6942 0.531227 38.1844 0.506226C37.702 0.493729 37.2948 0.474976 37.276 0.462479C37.2634 0.443726 37.2885 0.399979 37.3386 0.368729C37.5015 0.256226 37.0191 0.381226 36.7622 0.512482C36.6307 0.58123 36.5242 0.64373 36.5242 0.649979C36.5242 0.656227 36.9063 0.649979 37.3699 0.637482C38.1844 0.61248 38.2157 0.61248 38.2157 0.73748C38.2157 0.906227 38.0653 0.937477 37.2196 0.937477C36.543 0.937477 36.5117 0.943726 36.543 1.06248C36.5743 1.18123 36.543 1.18748 35.904 1.18748C35.5343 1.18748 35.2086 1.21248 35.171 1.24373C35.0958 1.31873 34.1373 1.49998 33.8365 1.49998C33.7113 1.49373 33.5421 1.45623 33.4544 1.40623C33.1975 1.26248 32.9156 1.29998 32.2641 1.56248C31.9258 1.69373 31.412 1.86873 31.1239 1.93748C30.8419 2.01248 30.5475 2.08748 30.4786 2.10623C30.3658 2.13748 30.3595 2.13123 30.4473 2.03123C30.535 1.93123 30.5287 1.92498 30.4159 1.95623C30.347 1.97498 30.109 2.03748 29.8834 2.09373C29.6579 2.14998 28.8748 2.42498 28.1418 2.69373C26.8262 3.18748 26.2435 3.33123 26.1621 3.19998C26.1182 3.12498 25.8802 3.18748 25.1597 3.46248C24.9216 3.55623 24.6961 3.61873 24.6585 3.60623C24.6209 3.58748 24.2889 3.78748 23.913 4.03748C23.5434 4.29373 23.2239 4.49998 23.1988 4.49998C23.1737 4.49998 23.2239 4.43123 23.3053 4.34373C23.3867 4.25623 23.4369 4.18748 23.4181 4.18748C23.3993 4.18748 23.1549 4.31248 22.873 4.46873C22.5911 4.62498 22.3342 4.74998 22.3029 4.74998C22.1275 4.74998 19.5714 6.53748 19.2707 6.86873L19.1517 6.99998L19.4461 6.86873C19.609 6.79998 19.7594 6.75623 19.7782 6.76873C19.7907 6.78748 19.5526 7.00623 19.2394 7.24998C18.9262 7.49373 18.6693 7.72498 18.6693 7.75623C18.6693 7.84998 18.2934 8.00623 18.1681 7.96873C17.811 7.85623 18.3059 7.05623 18.9199 6.75623C19.2457 6.59373 20.4861 5.71873 20.4861 5.64998C20.4861 5.59373 20.1227 5.81248 19.5652 6.21248C19.2457 6.43748 18.9324 6.62498 18.8572 6.62498C18.7883 6.62498 18.5628 6.70623 18.3561 6.81248C18.1493 6.91248 17.9363 6.99998 17.8862 6.99998C17.7296 6.99998 17.9551 6.64373 18.2558 6.43123C18.5064 6.24373 19.5025 5.68748 19.5777 5.68748C19.5965 5.68748 19.6028 5.74373 19.5777 5.80623C19.5464 5.91873 19.5589 5.92498 19.7218 5.88123C20.0037 5.79998 20.2794 5.63748 21.0124 5.14373C21.808 4.60623 22.115 4.43748 22.3155 4.43748C22.3969 4.43748 22.8292 4.23123 23.2802 3.98123C24.1385 3.51248 24.4142 3.33748 24.3641 3.28748C24.3515 3.26873 23.9443 3.48123 23.4682 3.75623C22.6412 4.23123 22.4345 4.31248 22.6162 4.09373C22.7978 3.87498 22.5786 3.93748 21.8581 4.30623C21.4446 4.52498 21.0875 4.68123 21.0687 4.66248C21.0186 4.61248 19.6842 5.31248 18.9199 5.78123C18.5941 5.98123 18.0616 6.34998 17.7296 6.59998C17.1532 7.03123 17.1219 7.06873 17.053 7.38123C17.0091 7.55623 16.8588 8.02498 16.7147 8.42498L16.4515 9.14373L15.7248 9.73748C14.4468 10.7937 13.5822 11.5625 12.6362 12.4937C12.1288 12.9937 11.7153 13.375 11.7153 13.3375C11.7153 13.1875 12.2791 12.4312 12.8116 11.875C13.3755 11.2812 13.6699 11.0187 13.6198 11.1562C13.5572 11.3312 14.4969 10.4062 14.7412 10.05C14.854 9.88748 15.0044 9.74373 15.0795 9.72498C15.2424 9.68123 15.9441 8.99373 16.0694 8.74998C16.226 8.44998 16.0005 8.39998 15.7373 8.67498C15.6434 8.77498 15.4116 8.91873 15.2236 8.99373C14.9354 9.10623 14.8603 9.17498 14.76 9.38123C14.6911 9.53748 14.24 10.0312 13.576 10.6875C12.9808 11.2687 12.4921 11.7312 12.4796 11.7187C12.4671 11.7062 12.5861 11.4937 12.749 11.2437C13.056 10.775 13.6449 10.1562 13.8516 10.0937C13.9957 10.0437 14.0082 9.96248 13.8704 9.91248C13.8078 9.88748 13.6511 9.99373 13.4193 10.225C13.2251 10.4187 12.9933 10.6125 12.9056 10.6687C12.8179 10.7187 12.5548 11.0562 12.3105 11.4125C12.0724 11.775 11.6652 12.3 11.4208 12.5812C11.1702 12.8625 10.8069 13.3062 10.6064 13.5625C10.4122 13.8187 9.84836 14.4375 9.3597 14.9375C8.46383 15.8625 8.08793 16.3437 8.18817 16.4437C8.28841 16.5437 8.50768 16.325 9.15296 15.4937C9.50379 15.0437 9.79824 14.6937 9.81704 14.7125C9.83583 14.7312 9.77318 14.8625 9.67295 15C9.32211 15.4937 9.30332 15.525 9.38476 15.475C9.42235 15.45 9.45994 15.4562 9.45994 15.4875C9.45994 15.6062 9.09031 16.0437 8.71442 16.3687C8.50142 16.5562 8.26962 16.8187 8.19444 16.9625L8.06914 17.2187L8.29467 17.0062C8.41997 16.8875 8.52021 16.8125 8.52021 16.85C8.52021 16.8812 8.37612 17.1312 8.2007 17.4C7.86866 17.925 7.51783 18.5812 7.51783 18.6875C7.51783 18.85 7.66819 18.7187 7.88119 18.3687C8.30094 17.675 8.71442 17.0625 8.76454 17.0625C8.79586 17.0625 8.80213 17.1375 8.7896 17.2312C8.75828 17.4 8.76454 17.4 8.84598 17.2812C8.8961 17.2125 9.17176 16.7625 9.46621 16.2812C9.9486 15.475 9.99245 15.375 9.99872 15.0437C10.0112 14.7437 10.0551 14.6062 10.2681 14.2562C10.4936 13.875 10.5563 13.8125 10.8883 13.6687C11.3895 13.4437 11.7153 13.45 11.7153 13.6875C11.7153 13.8125 10.5688 14.9375 10.4435 14.9375C10.3308 14.9375 9.44115 16.85 9.44741 17.0687C9.44741 17.2125 9.3785 17.3 9.05272 17.5625C8.539 17.9625 7.85613 18.7812 7.13567 19.85C6.82869 20.3125 6.55931 20.7312 6.54051 20.7812C6.52172 20.825 6.55931 20.9187 6.62822 20.9875C6.74725 21.1062 6.74725 21.1125 6.47786 21.5C6.32751 21.7125 6.19594 21.9187 6.18341 21.9625C6.12076 22.1375 6.08944 21.9375 6.14582 21.6937C6.17715 21.5437 6.19594 21.4125 6.18341 21.4C6.17088 21.3875 5.88896 21.9187 5.55066 22.5812C5.21236 23.2375 4.89285 23.8125 4.849 23.85C4.76129 23.9187 4.57334 24.3875 4.57334 24.525C4.57334 24.5625 4.67358 24.4125 4.79261 24.1875C5.03068 23.75 5.22489 23.5187 5.28127 23.6062C5.30007 23.6312 5.18103 23.9812 5.01815 24.375C4.61093 25.3625 4.32275 26.2 4.23504 26.675L4.15986 27.0812L3.85288 27.0875L3.53964 27.0937L3.52711 26.7812C3.50831 26.4062 3.61482 25.325 3.70879 24.95C3.74638 24.8062 3.75891 24.6687 3.74638 24.65C3.69626 24.6062 2.88183 26.6937 2.53099 27.7625C2.12378 29 2.00475 29.0062 2.25534 27.775C2.33052 27.4312 2.39317 27.0562 2.4057 26.9375C2.43076 26.7 3.03845 25.2125 3.16375 25.0812C3.2076 25.0375 3.30784 24.8125 3.38302 24.5875C3.46446 24.3562 3.6712 23.8437 3.85915 23.4375C4.04083 23.0375 4.22251 22.5687 4.26636 22.4C4.30395 22.2312 4.3666 22.0625 4.40419 22.0312C4.46684 21.9625 4.46684 21.975 4.29142 22.7187C4.15986 23.2937 4.05962 23.975 4.08468 24.1437C4.10348 24.25 4.1536 24.1875 4.31648 23.875C4.4731 23.575 4.54202 23.3375 4.58587 22.9687C4.66732 22.1937 4.78635 21.875 5.19356 21.325C5.70728 20.6312 5.86391 20.325 5.5444 20.625C5.45669 20.7062 5.38777 20.75 5.38777 20.725C5.38777 20.6687 5.71981 20.1812 5.98294 19.8437C6.25859 19.5 6.31498 19.375 6.12703 19.5437C5.85764 19.7937 5.87643 19.7 6.18968 19.2937C6.35883 19.0812 6.64075 18.6937 6.82243 18.425C7.00411 18.1625 7.2923 17.8 7.46771 17.6187C7.69951 17.3812 7.78722 17.2312 7.79975 17.0875C7.80601 16.9812 7.89999 16.7062 8.00649 16.475L8.20697 16.05L7.66819 16.5375C6.95399 17.1875 6.75352 17.4375 6.12703 18.5C4.79888 20.7562 4.24757 21.8062 3.66494 23.1937C3.49578 23.6 3.32663 23.9125 3.29531 23.9C3.2076 23.8687 2.68135 25.0375 2.37437 25.9375C2.11125 26.725 2.04233 27.1937 1.94836 28.8437C1.87945 30 1.67897 31.1437 1.50356 31.3875C1.37199 31.5625 1.29055 31.8812 1.2279 32.4375C1.18405 32.7687 1.1026 33 1.04622 32.9375C1.02743 32.9187 1.03996 32.7375 1.07128 32.5375C1.14019 32.1375 1.07754 31.9875 0.933452 32.1625C0.864539 32.2437 0.852009 32.4375 0.864539 33.0062C0.889598 33.8375 0.776831 34.7125 0.657798 34.6625C0.613944 34.65 0.551295 34.6625 0.513706 34.7C0.444793 34.7687 0.432263 34.7562 0.357084 34.5C0.344555 34.45 0.294436 34.6562 0.244317 34.9687C0.131549 35.7 0.131549 36.9187 0.250582 37.4687C0.294436 37.7062 0.33829 38.2312 0.33829 38.625C0.33829 39.225 0.319495 39.4062 0.194198 39.725C0.0689004 40.0562 0.0563707 40.2 0.0751653 40.7437C0.0814301 41.0937 0.0689004 41.375 0.0438409 41.375C-0.0188078 41.375 0.0626355 42.6875 0.131549 42.8125C0.175403 42.8875 0.181668 42.875 0.187933 42.7625C0.187933 42.4812 0.300701 42.6375 0.344555 42.9812C0.413468 43.5812 0.626474 44.5687 0.732977 44.8062L0.839479 45.0312L0.877069 44.5625C0.908393 44.15 0.895863 44.075 0.776831 43.9062C0.639004 43.7125 0.632739 43.6562 0.532501 42.0937L0.501176 41.5937L0.588885 42.0375C0.664063 42.4312 0.852009 42.9187 0.908393 42.8625C0.920923 42.8562 0.895863 42.6 0.858274 42.2937C0.808155 41.8875 0.808155 41.7 0.864539 41.5437C0.945982 41.3125 0.902128 38.7875 0.808155 38.4687C0.770566 38.3437 0.764301 38.475 0.783096 38.8562C0.82695 39.525 0.732977 39.6375 0.632739 39.0437C0.526236 38.3875 0.469852 35.7937 0.563825 35.5687C0.664063 35.3187 0.739241 35.3187 0.701652 35.5625C0.676593 35.75 0.783096 35.9625 0.877069 35.9062C0.908393 35.8875 0.945982 35.7562 0.971042 35.6062C0.996101 35.4625 1.03369 35.3187 1.05248 35.2875C1.06501 35.2562 1.18405 35.5562 1.30934 35.9437L1.53488 36.6562L1.52862 37.9687C1.52235 38.8812 1.49729 39.325 1.44717 39.425C1.38452 39.5375 1.38452 39.7187 1.44091 40.2687C1.48476 40.6562 1.52235 41.35 1.53488 41.8187C1.54114 42.3 1.57873 42.7187 1.61632 42.7875C1.65391 42.85 1.6915 42.8687 1.6915 42.825C1.6915 42.65 1.8168 42.7687 1.8168 42.95C1.8168 43.0625 1.86065 43.4187 1.91077 43.7312C2.00475 44.2937 1.99848 44.3187 1.87945 44.4375C1.81053 44.5062 1.75415 44.6125 1.75415 44.675C1.75415 44.7375 1.71656 44.8437 1.66644 44.9125C1.57873 45.025 1.5662 45.0125 1.43464 44.7C1.35946 44.5187 1.29055 44.3812 1.27802 44.3937C1.26549 44.4 1.29681 44.5812 1.34693 44.7812C1.4597 45.2562 1.4597 45.3187 1.3532 45.275C1.20284 45.2187 1.17778 45.4625 1.25296 46.2375C1.32187 46.8625 1.3532 46.9937 1.4785 47.1312C1.59753 47.25 1.62885 47.3562 1.62885 47.6C1.62885 48.0562 1.75415 48.9687 1.87945 49.4687C1.9421 49.7062 1.98595 49.9125 1.97342 49.925C1.96716 49.9375 1.78547 49.6375 1.57873 49.2625C1.25296 48.6875 1.00237 48.3312 1.00237 48.4562C1.00237 48.475 1.14646 48.8625 1.32187 49.3187C1.55367 49.9437 1.63512 50.225 1.62259 50.4375C1.60379 50.7437 1.74162 51.2437 1.81053 51.1375C1.86692 51.0437 2.54979 51.8375 2.80038 52.2875C2.91315 52.4937 3.00712 52.6062 3.00712 52.5437C3.00712 52.3375 2.69388 51.4875 2.46835 51.0937C2.09872 50.4312 2.23655 50.5125 2.65629 51.2062C2.87556 51.5687 3.23266 52.1125 3.45193 52.4187C3.66494 52.7187 3.9218 53.1625 4.01577 53.4062C4.22877 53.95 4.54202 55.05 4.4919 55.1C4.3666 55.2312 3.94686 54.55 3.94686 54.2062C3.94686 54.0312 3.72758 54.15 3.69626 54.3437C3.66494 54.5187 3.65241 54.5125 3.5459 54.1875C3.48325 54 3.38302 53.7875 3.3141 53.7187C3.24519 53.65 3.00712 53.2687 2.78159 52.875C2.56232 52.4812 2.30546 52.0687 2.21775 51.9687L2.06113 51.7812L2.16137 51.9812C2.26161 52.1937 2.46208 53.0625 2.41823 53.1062C2.4057 53.1187 2.31799 52.9937 2.21775 52.8187C2.07366 52.5437 1.9421 52.4125 1.9421 52.5375C1.9421 52.625 2.72521 54 2.77532 54C2.80665 54 2.80665 53.9437 2.78785 53.875C2.76906 53.8062 2.76906 53.75 2.78785 53.75C2.82544 53.75 3.37049 54.8687 3.46446 55.1375C3.48952 55.2 3.47699 55.25 3.44567 55.25C3.40808 55.25 3.38302 55.2187 3.38302 55.1875C3.38302 55.1062 3.15122 55.1062 3.09483 55.1937C3.04471 55.2812 3.42061 55.6687 3.60229 55.7125C3.69626 55.7375 3.77144 55.825 3.82156 55.9687C3.85915 56.0875 3.93433 56.225 3.97818 56.275C4.0283 56.325 4.34154 56.8375 4.67358 57.4125C5.71981 59.225 6.41521 60.2687 6.88508 60.7125C7.20459 61.0187 7.167 60.8562 6.8099 60.4C6.43401 59.925 6.20221 59.525 6.20221 59.3687C6.20221 59.3125 6.07691 59.1625 5.92029 59.0375C5.76367 58.9062 5.5256 58.6062 5.37525 58.3562C5.05574 57.8062 4.73623 57.0687 4.79888 57.0125C4.82394 56.9875 4.849 57 4.86153 57.0312C4.96176 57.3062 5.76367 58.3687 6.32751 58.9812C6.79111 59.475 7.17953 59.975 7.51783 60.5125C7.79348 60.9437 8.01902 61.3312 8.01902 61.3687C8.01902 61.4062 7.9689 61.4125 7.91252 61.3937C7.82481 61.3625 7.83107 61.3937 7.95637 61.6C8.31347 62.2 8.80839 62.7937 9.77318 63.7812C10.8821 64.925 11.4021 65.5062 11.4021 65.6062C11.4021 65.6437 11.5399 65.8875 11.7153 66.15C11.8844 66.4125 12.0285 66.6625 12.0285 66.7062C12.0285 66.8812 12.8304 67.5562 13.576 68.0062C13.8767 68.1937 14.2087 68.4812 14.5971 68.9062C15.0419 69.3875 15.2612 69.575 15.5619 69.7187C15.7749 69.825 16.1446 70.0687 16.3826 70.2562C16.627 70.4437 17.0718 70.7937 17.3725 71.025C17.6795 71.2625 17.9426 71.4937 17.9614 71.5437C18.0052 71.65 18.4312 71.875 18.5941 71.875C18.7382 71.875 19.2958 72.225 19.2958 72.3125C19.2958 72.4375 20.9184 73.4062 21.0562 73.3625C21.0938 73.35 20.9497 73.2125 20.7304 73.0625C20.5174 72.9125 20.3733 72.775 20.4109 72.7625C20.4924 72.7375 21.7391 73.3687 21.9897 73.5625L22.1463 73.6875H21.9772C21.8769 73.6875 21.8017 73.7062 21.8017 73.7375C21.8017 73.7625 21.9834 73.9062 22.209 74.0562C22.4345 74.2062 22.6162 74.3562 22.6162 74.3875C22.6162 74.4625 23.6436 74.9375 24.3327 75.1812C25.0469 75.4312 25.83 75.6312 27.1895 75.9C27.7909 76.0187 28.6116 76.2187 29.0063 76.3437C30.7668 76.9 32.9093 77.3687 34.2062 77.4875C34.5319 77.5187 35.1271 77.5312 35.5218 77.5187C36.236 77.4875 36.2423 77.4875 36.3926 77.65C36.4929 77.7562 36.6119 77.8125 36.7372 77.8125C36.9063 77.8187 36.9126 77.825 36.8186 77.8812C36.7372 77.9312 36.4365 77.9125 35.7223 77.8187C35.1835 77.7437 34.6572 77.6875 34.5507 77.6937L34.3628 77.7L34.5382 77.7687C34.8452 77.8875 34.7199 77.9375 34.0997 77.9375C33.5672 77.9437 33.4982 77.95 33.5985 78.025C33.6862 78.0937 33.7676 78.1 33.9431 78.05C34.2062 77.975 35.0645 78.0187 36.0731 78.1562C36.9126 78.2687 38.3347 78.3875 38.4036 78.3437C38.435 78.325 38.6605 78.3062 38.9174 78.3062C39.3559 78.3 40.0325 78.4312 40.327 78.575C40.4209 78.625 40.8469 78.6312 41.6739 78.6062C42.7389 78.5687 43.1399 78.5312 44.2738 78.3437C44.4242 78.3187 44.5244 78.2687 44.5056 78.2375C44.4868 78.2062 44.4994 78.1437 44.5432 78.0937C44.5996 78.0312 44.5871 77.9937 44.5056 77.95C44.3866 77.8875 44.4179 77.875 45.5644 77.65C46.0343 77.5625 46.1533 77.5562 46.36 77.625C46.4979 77.6687 46.5918 77.725 46.5793 77.7562C46.5605 77.7812 46.3788 77.8187 46.1658 77.8437C45.9152 77.875 45.8087 77.9125 45.8463 77.95C45.9152 78.0187 46.147 77.975 46.9802 77.75C47.2371 77.6812 47.4564 77.6375 47.4689 77.65C47.4877 77.6625 47.306 77.7375 47.0805 77.8125C46.8549 77.8875 46.6733 77.9625 46.6858 77.975C46.6983 77.9875 46.8925 77.95 47.1118 77.9C47.3373 77.85 48.2082 77.6812 49.0539 77.525C51.4095 77.1 51.0649 77.2375 53.9092 75.6562C54.5983 75.275 55.4316 74.8687 55.7573 74.75C56.0831 74.6312 56.9289 74.2437 57.6431 73.8937C58.376 73.5375 58.9524 73.2875 58.9649 73.325C58.9775 73.3625 59.3408 73.175 59.7731 72.9062C61.4521 71.8437 61.734 71.6875 61.9282 71.6875C62.0723 71.6875 62.2289 71.6 62.5297 71.3562C62.7489 71.175 63.3817 70.675 63.933 70.2562C64.9542 69.4687 65.211 69.2312 64.6973 69.5312C64.5344 69.6187 64.3778 69.6812 64.3465 69.6562C64.3089 69.6375 64.0896 69.8125 63.8578 70.0437C63.5446 70.3562 63.3504 70.4937 63.1186 70.5687C62.8492 70.6562 62.6863 70.675 62.7802 70.6062C62.8241 70.5687 64.3653 69.3 64.4843 69.1937C64.5783 69.1187 64.6096 69.1125 64.6472 69.1812C64.6848 69.2375 64.7161 69.2437 64.7411 69.1937C64.7662 69.1562 64.7537 69.125 64.7098 69.125C64.6534 69.125 64.6534 69.1062 64.7098 69.0375C64.7474 68.9875 64.7787 68.925 64.7725 68.9C64.7474 68.7562 64.7975 68.6812 64.998 68.5312C65.1108 68.4375 65.2611 68.3562 65.3238 68.35C65.3864 68.3375 65.6558 68.0687 65.9315 67.7437C66.89 66.5937 67.4225 65.9937 67.4538 66.0187C67.4977 66.0625 67.316 66.3812 67.0654 66.7187C66.8399 67.0125 66.8649 67.0312 67.1594 66.7875L67.316 66.6562L67.1907 66.8125C67.1281 66.9 66.8274 67.2187 66.5329 67.5312C65.8375 68.25 65.4052 68.75 65.4052 68.8187C65.4052 69.2437 67.7859 66.5812 68.9887 64.8125C69.208 64.4875 69.5463 64.0625 69.7343 63.875C69.9285 63.6875 70.3357 63.15 70.6489 62.6875C71.2817 61.7437 71.739 61.2062 71.9458 61.15C72.2402 61.0812 73.6999 58.4375 74.176 57.125C74.3327 56.6875 74.458 56.4562 74.6522 56.2437C74.9153 55.9562 75.429 55.0312 75.429 54.8437C75.429 54.7687 75.3914 54.75 75.3037 54.7812C75.2223 54.8062 75.1659 54.7875 75.1471 54.7312C75.0907 54.6 75.4102 53.675 75.6358 53.2937C75.8801 52.8937 76.9576 50.2312 77.0579 49.7875C77.1205 49.5 77.0955 49.3437 77.0015 49.4062C76.9702 49.4187 76.9138 49.6062 76.8699 49.8125C76.8261 50.0187 76.7509 50.2375 76.7008 50.2937C76.6193 50.3937 76.6193 50.375 76.6507 50.1062C76.6757 49.9437 76.7885 49.4937 76.9075 49.1062C77.2145 48.1312 77.1832 48.2062 77.2396 48.3062C77.2772 48.3625 77.3148 48.2875 77.3649 48.0687C77.4714 47.575 77.7345 45.6687 77.8097 44.875C77.8848 44.0187 77.8848 42.1437 77.8097 41.75C77.7596 41.5062 77.7596 41.525 77.7784 41.9062C77.7971 42.1437 77.7846 42.4437 77.7533 42.5625L77.7032 42.7812L77.6531 42.45C77.5779 41.9187 77.5278 42.1437 77.5465 42.9375C77.5653 43.4187 77.5465 43.6875 77.5027 43.7125C77.4588 43.7437 77.4338 43.675 77.4338 43.5125C77.4338 43.1 77.3586 42.5 77.3085 42.5312C77.2834 42.55 77.227 42.6937 77.1832 42.8562L77.1017 43.1562L77.0516 42.9375C77.0266 42.8187 76.9451 42.1437 76.8699 41.4375C76.7948 40.7312 76.7071 40.1 76.6757 40.0312C76.6381 39.95 76.6319 40.5062 76.6632 41.5625C76.7321 44.1437 76.7196 45.025 76.6006 45.5875C76.5003 46.0562 76.3562 46.2875 76.2247 46.2062C76.1933 46.1875 76.1871 46.2562 76.2059 46.3562C76.2309 46.4625 76.2184 46.7812 76.1808 47.0687C76.1432 47.3562 76.0868 47.8062 76.0618 48.0625C75.9929 48.675 75.7423 49.5875 75.6671 49.5125C75.6358 49.4812 75.6044 49.2937 75.5982 49.1C75.5919 48.9062 75.5731 48.7875 75.548 48.825C75.523 48.8687 75.3726 49.4375 75.216 50.0937C74.5582 52.7625 73.9693 54.475 73.0797 56.2812C72.472 57.5187 71.7954 58.6687 71.6826 58.6437C71.6513 58.6375 71.5448 58.8062 71.4508 59.0187C71.2566 59.4625 70.6865 60.325 70.1728 60.9687C69.5526 61.75 68.8259 62.5625 68.7507 62.5625C68.6442 62.5625 68.0803 63.225 67.4413 64.0937C66.4452 65.45 66.2322 65.7125 65.7749 66.175C65.4741 66.4875 65.3113 66.6125 65.2799 66.5562C65.2048 66.4437 64.2901 67.1125 63.5571 67.8125C62.3605 68.9625 60.2054 70.5562 58.1505 71.8062C57.6493 72.1187 57.4927 72.1875 57.4238 72.1312C57.3173 72.0437 57.098 72.125 55.7761 72.75C55.0619 73.0875 54.7236 73.2125 54.4229 73.25C54.0032 73.3 53.2075 73.6312 52.9381 73.8687C52.8504 73.9437 52.8254 73.9937 52.8755 73.975C53.928 73.625 54.022 73.7125 53.0321 74.1125C52.581 74.2937 52.0736 74.5375 51.9044 74.65C51.6413 74.825 51.5035 74.8687 51.0963 74.9062C50.6515 74.9437 50.5825 74.9687 50.4009 75.1562C50.1565 75.3937 49.7117 75.5625 49.3233 75.5625C49.104 75.5625 49.0163 75.5937 48.9098 75.725C48.8159 75.8312 48.6467 75.9125 48.3961 75.9687C48.1956 76.0187 48.014 76.05 48.0077 76.0375C47.9952 76.025 48.1518 75.8937 48.3648 75.7437C48.8409 75.3937 48.7219 75.3625 47.9325 75.625C47.2559 75.8437 47.2496 75.85 47.3875 75.6937C47.4438 75.6312 47.707 75.4875 47.9638 75.375C48.2207 75.2625 48.4212 75.1562 48.4024 75.1437C48.3147 75.0562 47.1933 75.3125 46.147 75.6562C45.4892 75.875 44.7249 76.0937 44.4492 76.15C43.9856 76.2437 42.9645 76.375 42.7139 76.375C42.5322 76.375 42.5886 76.2625 42.789 76.2187C43.0208 76.1687 43.0772 76.0875 42.9331 76.0125C42.858 75.975 42.4946 76.0187 41.8806 76.1375C41.0036 76.3 40.872 76.3062 39.9072 76.275C39.3183 76.25 38.5916 76.1812 38.2157 76.1125C37.8085 76.0375 37.063 75.975 36.2423 75.9375C35.5218 75.9125 34.77 75.8562 34.5821 75.8125C34.1811 75.725 32.853 75.1125 32.6901 74.9375C32.5585 74.7937 31.8506 74.5625 30.8733 74.3437C30.228 74.1937 29.4574 73.9875 29.2005 73.8875C29.1442 73.8687 29.2256 74 29.376 74.175L29.6454 74.5062L30.253 74.4875C30.6289 74.475 30.9672 74.5 31.1489 74.5562C31.625 74.6937 31.5185 74.775 30.9359 74.725C30.6477 74.7062 30.1403 74.6687 29.802 74.6437C29.2632 74.6125 29.1442 74.5812 28.8622 74.4125C28.6868 74.3062 28.4425 74.0875 28.3235 73.925C28.1293 73.6625 28.0478 73.6125 27.4777 73.4062C27.1269 73.275 26.0869 72.8062 25.166 72.3625C23.6875 71.6562 23.3993 71.5375 22.7853 71.4C21.8581 71.2 21.2692 70.9 20.3295 70.15C19.4524 69.45 19.3584 69.3937 19.3584 69.5312C19.3584 69.6312 19.2958 69.625 19.0013 69.5187C18.9575 69.5 18.9199 69.5187 18.9199 69.5562C18.9199 69.6875 18.6129 69.4312 18.4187 69.1375C18.3059 68.9687 18.2308 68.775 18.2308 68.65C18.2308 68.4687 18.2057 68.4375 17.999 68.3687C17.8235 68.3125 17.4664 67.9937 16.6645 67.1937C15.587 66.1187 15.5745 66.1062 16.0506 66.4375C16.32 66.6187 16.558 66.75 16.5831 66.7312C16.652 66.6625 16.5267 66.5687 15.6434 66.025C14.8603 65.5375 14.5909 65.4125 14.9166 65.6812C14.9981 65.75 15.0294 65.8062 14.9856 65.8125C14.8227 65.8125 14.1085 65.0062 13.7451 64.4C13.5446 64.0625 13.3818 63.7437 13.3818 63.7062C13.388 63.6625 13.1813 63.425 12.9181 63.175C10.8319 61.1812 10.4122 60.7687 10.3683 60.6562C10.3433 60.5875 10.2744 60.475 10.2117 60.4062C10.0551 60.2312 9.27199 58.7187 9.27199 58.5937C9.27199 58.4375 8.9149 57.7687 8.73948 57.6125C8.55153 57.4375 7.80601 55.8437 7.11061 54.125C6.5781 52.8125 5.73861 50.4437 5.78873 50.3875C5.80752 50.375 5.98294 50.4625 6.18341 50.5812C6.38389 50.7062 6.9352 51.0125 7.41133 51.2687C8.26335 51.7312 8.28214 51.7437 8.43877 52.075C8.539 52.275 8.60165 52.5312 8.60792 52.7187C8.62045 53.1125 8.99008 53.8812 9.51632 54.6187C9.72933 54.9125 9.93607 55.275 9.98619 55.4625C10.1052 55.8562 10.4811 56.5062 10.9009 57.0312C11.07 57.25 11.2141 57.4437 11.2141 57.4625C11.2141 57.6 11.0512 57.4312 10.7192 56.9437C10.5124 56.6375 10.2994 56.375 10.2493 56.3562C10.1992 56.3375 10.1115 56.225 10.0488 56.1125C9.85463 55.7312 9.00887 54.3062 8.98381 54.325C8.97128 54.3375 9.0214 54.525 9.08405 54.7375C9.27199 55.3312 9.34091 55.8562 9.25946 56.0312C9.20308 56.1562 9.22814 56.225 9.485 56.5562C9.77945 56.9375 10.03 57.0812 10.1679 56.9437C10.3934 56.7187 10.7818 57.1312 11.3519 58.2C11.7278 58.9 11.7591 58.9437 12.0285 59.0437C12.4358 59.1937 12.6863 59.4375 12.4358 59.4375C12.3856 59.4375 12.3418 59.4625 12.3418 59.4875C12.3418 59.5687 12.6738 60.0062 12.8743 60.1875C13.1124 60.4062 13.6574 61.1562 13.6574 61.2625C13.6574 61.3125 13.7013 61.4062 13.7514 61.475C13.8704 61.6312 13.8704 61.6937 13.7514 61.65C13.695 61.625 13.6574 61.65 13.6574 61.7125C13.6574 61.8312 14.3027 62.475 14.4718 62.5312C14.6159 62.575 14.8665 62.4562 14.8164 62.3687C14.7412 62.2562 14.8791 62.3187 15.0482 62.4812C15.1422 62.575 15.2236 62.6187 15.2236 62.5875C15.2236 62.55 15.1234 62.4312 15.0044 62.3125C14.8853 62.1937 14.7851 62.0687 14.7851 62.0312C14.7851 61.9187 14.0834 60.9625 13.4945 60.2812C12.6488 59.3 11.3394 57.4 11.3081 57.1062C11.2955 57.0312 11.1577 56.7437 10.9886 56.4687C10.6315 55.8687 10.03 54.6187 9.36597 53.1125C8.95875 52.175 8.85851 52 8.70816 51.9375C8.58286 51.8875 8.48889 51.7625 8.36359 51.4562C8.26335 51.2375 8.0942 50.9562 7.98143 50.8312C7.78722 50.6312 7.76216 50.6187 7.49277 50.6562L7.20459 50.7L7.02291 50.2875C6.75978 49.7125 6.69087 49.4375 6.79737 49.4375C6.90387 49.4375 6.74725 49.0375 6.49666 48.6687C6.40895 48.5437 6.32124 48.3312 6.29618 48.2C6.25233 47.95 6.08318 47.5937 6.07691 47.75C6.07691 47.8 6.10197 47.9375 6.13329 48.05C6.16462 48.1562 6.17088 48.25 6.13956 48.25C6.1145 48.25 6.05812 48.1187 6.02053 47.95C5.97667 47.7875 5.83258 47.4812 5.69475 47.275C5.55693 47.0625 5.4191 46.7937 5.38777 46.6812C5.27501 46.3062 5.19356 45.4812 5.26248 45.4125C5.35645 45.3187 5.50681 45.4937 5.58199 45.7875C5.68222 46.1875 5.78873 46.1375 5.73234 45.7187C5.68222 45.2812 5.78246 45.2687 5.87643 45.7C5.91402 45.8812 5.99547 46.2687 6.05185 46.5562C6.17088 47.1125 6.2398 47.225 6.83496 47.6875C7.06676 47.8687 7.09182 47.8812 7.00411 47.75C6.71593 47.3437 6.5781 47.0687 6.54051 46.825C6.52172 46.6812 6.52172 46.5625 6.55304 46.5625C6.63448 46.5625 6.55304 44.9437 6.45907 44.7062C6.38389 44.5125 6.37762 44.5062 6.22727 44.6062C6.12703 44.6687 6.06438 44.7875 6.03932 44.95C5.96414 45.3812 5.87017 45.1062 5.86391 44.4562C5.86391 44.0562 5.88896 43.7937 5.94535 43.6937C6.01426 43.5625 6.01426 43.5375 5.92655 43.4875C5.81379 43.425 5.78873 42.9875 5.8827 42.7375C5.92029 42.6375 5.91402 42.5375 5.85764 42.4437C5.7574 42.2562 5.72608 42.3125 5.63837 42.8375C5.57572 43.1625 5.57572 43.3687 5.63837 43.7562C5.71355 44.225 5.70728 44.2625 5.60078 44.3437C5.43163 44.4687 5.31886 44.3375 5.23115 43.8937C5.14345 43.4875 5.16224 43.3937 5.3126 43.5125C5.39404 43.5812 5.4003 43.5687 5.36898 43.4062C5.27501 42.9625 5.24995 41.3125 5.31886 40.5937C5.36272 40.1812 5.4191 39.8187 5.44416 39.7937C5.46922 39.7687 5.51307 40.0437 5.53187 40.4125C5.55066 40.7812 5.60078 41.1125 5.63837 41.15C5.71981 41.2312 5.71981 40.5937 5.6321 40.0937C5.60078 39.8875 5.55693 39.6187 5.53813 39.5L5.50681 39.2812L5.61331 39.4625C5.70102 39.625 5.72608 39.6312 5.7762 39.5375C5.80752 39.4812 5.83258 39.3437 5.82632 39.2312C5.82005 39.1187 5.81379 38.725 5.80752 38.35C5.80752 37.8437 5.78873 37.7062 5.74487 37.8187C5.68222 37.9625 5.68222 37.9562 5.6321 37.7187C5.56319 37.3625 5.56319 36.3687 5.63837 35.6187C5.70102 34.9937 5.91402 33.6625 5.99547 33.4062L6.03306 33.2812L6.08318 33.4062C6.1145 33.475 6.12076 33.8562 6.09571 34.25C6.07065 34.8562 6.07691 34.9562 6.14582 34.8875C6.21474 34.825 6.23353 34.5625 6.2398 33.7937C6.24606 32.7062 6.37762 31.975 6.54678 32.0437C6.60316 32.0625 6.7034 31.9375 6.82243 31.6875C7.00411 31.3312 7.01664 31.2437 7.02291 30.6312C7.02917 29.7437 7.07929 29.4625 7.39253 28.6625C7.57421 28.1875 7.65566 27.8687 7.66819 27.6C7.68072 27.375 7.74963 27.0687 7.8436 26.8437C8.08167 26.2687 8.93996 24.7312 8.97128 24.825C8.99008 24.8687 9.06525 24.7875 9.13417 24.6437C9.24067 24.4437 9.84836 23.025 10.1303 22.325C10.1491 22.2812 10.1992 22.2562 10.243 22.275C10.2994 22.2937 10.3496 22.2062 10.3997 22.0125C10.4373 21.8562 10.5688 21.5125 10.6879 21.2562C10.9384 20.7187 10.9259 20.6062 10.6753 21.0375C10.5751 21.2062 10.2744 21.6375 9.99872 22C9.67921 22.425 9.3597 22.9437 9.10911 23.4687C8.88984 23.9125 8.70816 24.25 8.70816 24.2187C8.70816 24.0687 8.92116 23.275 9.19055 22.4187C9.44115 21.6312 9.52259 21.45 9.75439 21.1812C9.96739 20.9312 10.0238 20.8187 10.0238 20.6312C10.0238 20.2625 10.1992 19.7625 10.3558 19.6812C10.431 19.6375 10.5312 19.5625 10.5751 19.5062C10.9197 19.075 11.2078 18.5625 11.4584 17.9437C11.7466 17.2187 12.2791 16.375 12.4483 16.375C12.5861 16.375 12.3794 16.8125 11.6276 18.0937C11.2893 18.6812 11.1765 18.9125 11.2454 18.925C11.3143 18.9437 11.2642 19.075 11.045 19.475C10.8821 19.7812 10.7818 20.0312 10.8132 20.0625C10.9071 20.15 11.0637 19.9875 11.1515 19.7187C11.2642 19.375 11.4584 19.1062 11.5712 19.15C11.6339 19.175 11.709 19.0812 11.8218 18.825C11.9784 18.4937 12.5611 17.6875 12.7239 17.5875C12.7678 17.5625 12.8242 17.5937 12.8555 17.65C12.9432 17.8 13.0059 17.775 13.3379 17.4687C13.5008 17.3125 13.6574 17.1875 13.6762 17.1875C13.7013 17.1875 13.6449 17.2875 13.5634 17.4125C13.4757 17.5375 13.4068 17.6875 13.4068 17.7437C13.4005 17.8 13.2063 18.0812 12.9683 18.375C12.5235 18.9062 12.4358 19.0875 12.6362 19.05C12.868 19.0062 14.4029 16.5625 14.6598 15.8437C14.7162 15.675 14.6974 15.6875 14.4656 15.95C14.2024 16.2562 14.0959 16.3187 14.0959 16.1625C14.0959 16.1125 14.0208 16.0625 13.9331 16.05L13.7702 16.0312L14.0082 15.7937C14.1335 15.6687 14.2776 15.5625 14.3277 15.5625C14.3716 15.5625 14.4092 15.5187 14.4092 15.4625C14.4092 15.4125 14.4969 15.2437 14.5971 15.0937C14.7036 14.9437 14.7851 14.8 14.7851 14.7687C14.7851 14.7437 14.948 14.65 15.1422 14.5687C15.3364 14.4812 15.9065 14.15 16.4077 13.825C16.9089 13.5 17.4727 13.1625 17.6544 13.0687C17.9802 12.9125 17.9927 12.9125 18.0741 13.025C18.1806 13.1687 18.118 13.2125 19.8283 11.8687C21.2128 10.7875 22.2465 10.025 22.9044 9.61248C23.512 9.22498 23.5434 9.21248 23.3867 9.38748C23.3053 9.46873 23.2427 9.55623 23.2427 9.57498C23.2427 9.65623 24.3515 9.18123 24.6648 8.96248C24.8465 8.83748 25.0971 8.60623 25.2224 8.44998C25.5732 8.00623 25.8864 7.68748 25.9428 7.71873C25.9679 7.73748 26.35 7.63748 26.7886 7.49998C27.2334 7.36248 27.6657 7.24998 27.7471 7.24998C27.8348 7.24998 28.3047 7.01248 28.7996 6.71873C29.7268 6.15623 30.109 5.98123 30.867 5.74998L31.3181 5.61248L31.6125 5.78748C31.8568 5.93123 31.9759 5.96248 32.3204 5.95623C32.665 5.95623 32.8028 5.91873 33.1725 5.73123C33.5296 5.54998 33.8178 5.46873 34.7074 5.30623C35.3088 5.19373 36.048 5.09998 36.3488 5.08748C36.994 5.07498 37.2885 5.01248 37.2572 4.91873C37.2446 4.87498 37.1569 4.83748 37.0692 4.82498C36.9753 4.81248 36.9001 4.78123 36.9001 4.74998C36.9001 4.69998 37.5892 4.59373 37.8085 4.61873C37.8774 4.62498 38.3535 4.54373 38.8735 4.43748C39.3872 4.33123 40.1327 4.20623 40.5212 4.15623C41.3669 4.04373 42.8266 4.03123 42.8893 4.13123C42.9081 4.16873 43.0522 4.25623 43.2088 4.32498C43.3591 4.38748 43.4657 4.46873 43.4469 4.50623C43.3905 4.59373 42.8642 4.57498 42.8078 4.48123C42.6575 4.22498 41.699 4.11873 40.8532 4.25623C40.4773 4.31873 40.4272 4.34373 40.4585 4.44998C40.4773 4.52498 40.4209 4.63748 40.3082 4.76248L40.1265 4.94998L40.4084 4.89998C40.565 4.86873 41.3544 4.85623 42.1626 4.87498C43.4782 4.89998 45.3451 4.89998 46.2974 4.87498C47.0617 4.85623 50.4259 5.63748 51.6413 6.11873C51.8982 6.22498 52.1613 6.29998 52.2239 6.29998C52.3806 6.28748 53.5772 6.93123 53.5333 6.99998C53.5145 7.03123 53.5897 7.10623 53.7025 7.16248C54.0032 7.31248 54.4542 7.63123 54.4229 7.66248C54.3728 7.71873 53.5709 7.50623 53.3078 7.36873C53.1637 7.29998 53.0321 7.25623 53.0133 7.27498C52.9695 7.32498 52.982 7.33123 53.3454 7.51873C53.6899 7.69998 53.6022 7.73748 53.1887 7.59373C53.0384 7.54373 52.9068 7.50623 52.8943 7.52498C52.8818 7.53748 53.2451 7.68123 53.7025 7.84373C54.6672 8.18748 54.8051 8.24998 55.0807 8.49373C55.2186 8.60623 55.4441 8.70623 55.7573 8.77498C56.7472 9.01248 57.7871 9.52498 58.3573 10.0562C58.4951 10.1875 58.7143 10.3562 58.8459 10.4312C58.9712 10.5125 59.0777 10.6062 59.084 10.6437C59.084 10.6875 59.3596 10.8937 59.6917 11.1125C60.1553 11.4125 60.243 11.4562 60.0488 11.2812C59.8358 11.0875 59.817 11.0625 59.9548 11.1C60.2179 11.1687 60.5875 11.3812 60.7567 11.55C60.8945 11.6812 61.001 11.7125 61.402 11.75C61.7591 11.7812 61.9595 11.8375 62.1726 11.9625C62.5359 12.175 63.6887 13.15 63.7826 13.325C63.8453 13.4375 63.8327 13.4437 63.7012 13.4062C63.626 13.3812 63.2564 13.2187 62.8805 13.0437C62.5109 12.875 62.1913 12.7437 62.1726 12.7687C62.1538 12.7875 62.2477 12.8625 62.3856 12.9312C62.8241 13.1562 64.1523 14.3062 64.1523 14.4687C64.1523 14.5 64.2775 14.6125 64.4342 14.7062C64.5908 14.8062 64.8226 15.0125 64.9604 15.1625C65.092 15.3125 65.2486 15.4375 65.2987 15.4375C65.3551 15.4375 65.5932 15.5125 65.8375 15.6C66.2385 15.75 66.3262 15.8187 66.8211 16.35C67.1155 16.675 67.3411 16.9375 67.316 16.9375C67.291 16.9375 67.4163 17.0937 67.5917 17.2875C68.0177 17.75 67.9989 17.8625 67.5666 17.4375C67.3787 17.25 67.222 17.125 67.222 17.1625C67.222 17.2937 67.5102 17.6562 67.717 17.7812C67.8297 17.85 68.1054 18.0687 68.3372 18.2625C68.7883 18.6562 68.8822 18.7 68.8196 18.4812C68.782 18.35 68.782 18.35 68.9073 18.5C68.9762 18.5875 69.1516 18.8687 69.2895 19.1312C69.4273 19.3937 69.5776 19.6437 69.634 19.6875C69.7844 19.8125 69.7468 19.8812 69.5714 19.8C69.4837 19.7625 69.4022 19.7437 69.3834 19.7625C69.3646 19.7812 69.4899 20.0312 69.6716 20.3187C70.2104 21.1937 70.1728 21.15 70.2354 21.0562C70.2605 21.0062 70.273 20.9 70.248 20.8125C70.2104 20.6437 70.2417 20.6625 70.4798 20.9687C70.6113 21.1437 70.6176 21.15 70.5737 21C70.5111 20.775 71.2002 21.8187 71.4884 22.3875C71.62 22.6562 71.7327 22.9187 71.7327 22.9687C71.7327 23.025 71.8142 23.1875 71.9144 23.3312C72.0084 23.475 72.3404 24.0125 72.6412 24.5312C72.9419 25.0437 73.2927 25.625 73.418 25.8125C73.6122 26.1125 73.6435 26.1375 73.6623 26.0125C73.6749 25.9312 73.6435 25.8187 73.5934 25.7625C73.5433 25.7062 73.4243 25.5062 73.3303 25.3187C73.205 25.0625 73.1862 24.9937 73.2614 25.0187C73.3428 25.05 73.3616 25.0187 73.3616 24.8625C73.3616 24.675 73.3679 24.6687 73.4806 24.775C73.6686 24.95 74.0257 25.7187 74.2951 26.5375C74.5331 27.2812 74.8464 27.9812 74.9028 27.9187C74.9216 27.9 74.8025 27.4562 74.6396 26.9312C74.2512 25.65 73.844 24.625 73.7626 24.7062C73.7438 24.725 73.7751 24.8312 73.8315 24.9375C73.8879 25.05 73.9067 25.125 73.8753 25.1C73.7751 25.0375 72.8604 23.825 72.8604 23.7562C72.8604 23.7187 72.7226 23.4062 72.5472 23.0625C72.378 22.7187 72.2339 22.425 72.2339 22.4062C72.2339 22.275 72.4031 22.5312 72.6725 23.0625C72.8416 23.4 73.0108 23.6937 73.0484 23.7187C73.1423 23.775 73.0358 23.5187 72.6349 22.7187C72.3154 22.0875 72.0898 21.7187 72.2089 22.025C72.3216 22.3125 72.0711 21.9875 71.2691 20.7812C70.7993 20.075 70.2417 19.2875 70.0412 19.0312C69.8345 18.775 69.6653 18.5312 69.6653 18.4937C69.6653 18.4562 69.5651 18.2625 69.4461 18.0625C69.327 17.8625 69.2268 17.6687 69.2268 17.6187C69.2268 17.5062 69.5651 17.8437 69.7029 18.1C69.7656 18.2187 69.847 18.3125 69.8721 18.3125C69.9598 18.3125 69.8783 18.1625 69.5087 17.625C69.1454 17.1187 68.569 16.5625 68.3936 16.5625C68.2996 16.5625 67.0967 15.3437 67.0967 15.2437C67.0967 15.2125 67.0028 15.15 66.8963 15.1C66.6645 14.9937 65.3551 13.7812 65.4115 13.725C65.4741 13.6562 66.5454 14.5 67.0466 15.0125C67.3098 15.2812 67.5729 15.5 67.623 15.5C67.7859 15.5 68.7757 16.375 69.7593 17.3875C70.8306 18.4812 71.0812 18.7937 71.5761 19.625C71.7766 19.95 72.0585 20.3937 72.2089 20.6125C72.3592 20.8312 72.4845 21.025 72.4845 21.05C72.4845 21.125 73.7876 23.0625 73.8377 23.0625C73.8565 23.0625 73.8377 23.0062 73.8002 22.9312C73.7563 22.8625 73.7375 22.7875 73.7563 22.775C73.7876 22.7375 74.3765 23.6375 74.5269 23.9625C74.6146 24.1437 74.6647 24.175 74.7775 24.15C74.8965 24.1187 74.9466 24.1625 75.1095 24.45C75.216 24.6312 75.3789 25.0062 75.4666 25.2812C75.642 25.7937 75.855 26.2812 75.8989 26.2375C75.9427 26.1937 75.7611 25.2812 75.6859 25.1312C75.642 25.05 75.4979 24.8187 75.3664 24.6187C75.0406 24.1187 74.7524 23.2875 74.6835 22.6687C74.6522 22.3875 74.6334 22.1437 74.6459 22.1312C74.6584 22.1187 74.7587 22.175 74.8652 22.25C74.9717 22.325 75.0719 22.375 75.0907 22.3562C75.1534 22.2937 74.9216 21.925 74.5958 21.575C74.0695 21 73.8002 20.65 73.8002 20.5437C73.8002 20.4875 73.7187 20.35 73.6185 20.2375C73.418 20.0062 72.898 18.9375 72.9857 18.9375C73.017 18.9375 73.1173 19.0437 73.2113 19.1687C73.3115 19.3 73.4117 19.4312 73.4368 19.4687C73.5558 19.6062 73.1862 18.85 72.7038 17.9687C71.9959 16.675 71.7327 16.15 71.7327 16.0062C71.7327 15.8312 70.5236 14.3375 70.3419 14.2875C70.2605 14.2687 70.1352 14.25 70.06 14.25C69.9848 14.25 69.7969 14.15 69.6403 14.0312C69.4774 13.9125 69.3333 13.8125 69.3145 13.8125C69.2707 13.8125 69.8533 14.5687 69.9786 14.675C70.2229 14.8812 70.3044 14.8687 70.1039 14.6562C69.9473 14.4875 69.9222 14.4312 70.0099 14.4687C70.0788 14.4937 70.2167 14.5312 70.3169 14.55C70.6176 14.6 71.2378 15.4812 71.7703 16.6125C71.9207 16.9375 72.0397 17.2187 72.0272 17.225C72.0147 17.2375 71.8518 17.0937 71.6701 16.9062C71.4822 16.7187 71.2942 16.5625 71.2566 16.5625C71.2128 16.5625 71.1125 16.4687 71.0373 16.3562C70.9559 16.25 70.6865 15.9375 70.4359 15.675C70.1853 15.4062 69.9786 15.1625 69.9786 15.125C69.9786 15.0875 69.7468 14.8187 69.4649 14.525C69.1767 14.2312 68.9324 13.9625 68.9198 13.9187C68.8885 13.8125 68.4625 13.375 68.3936 13.375C68.3623 13.375 68.3497 13.4187 68.3748 13.4687C68.4186 13.5937 68.3748 13.5875 68.1179 13.4312C67.8799 13.2812 67.4726 12.7812 67.4726 12.6312C67.4726 12.575 67.529 12.4937 67.6042 12.45C67.717 12.375 67.7546 12.3812 67.8736 12.4875C68.1367 12.7312 68.5377 12.95 68.6316 12.9125C68.7695 12.8625 68.9073 12.9437 69.3897 13.35C69.6904 13.6062 69.8032 13.6687 69.8282 13.6C69.8783 13.475 69.7217 13.2 69.2957 12.675C68.8008 12.0687 68.4813 11.7625 68.4938 11.9125C68.5001 11.9812 68.45 12.0375 68.3497 12.0625C68.2244 12.0937 68.1931 12.1375 68.1994 12.2937L68.2119 12.4875L67.8235 12.2187C67.6167 12.075 67.1469 11.8062 66.7835 11.6187C66.2322 11.3375 66.0317 11.1875 65.5305 10.6937C65.1045 10.275 64.8289 10.0625 64.5595 9.93748C64.2086 9.77498 63.3566 9.08748 63.4255 9.01873C63.4757 8.96873 64.0833 9.29373 64.7036 9.69998C65.0231 9.91248 65.2987 10.0687 65.3175 10.05C65.33 10.0312 65.186 9.86873 64.9855 9.68748C64.7286 9.45623 64.3778 9.23748 63.745 8.93123C62.7802 8.46248 62.2289 8.11873 62.0222 7.85623C61.8092 7.58748 61.9909 7.64373 62.6675 8.06248C63.2877 8.44373 63.7388 8.68748 63.814 8.68748C63.839 8.68748 63.6699 8.51248 63.4381 8.30623C62.9557 7.86248 62.9306 7.74998 63.3942 8.11873C63.5696 8.25623 63.933 8.49998 64.2024 8.65623C64.7098 8.96248 65.2298 9.37498 65.0983 9.37498C65.0168 9.37498 65.1922 9.68748 65.3238 9.76873C65.5243 9.89373 66.251 10.5062 66.9339 11.1125C67.3411 11.4812 67.6982 11.7875 67.7295 11.8C68.0302 11.9125 66.8023 10.5937 66.0192 9.96248C65.7561 9.74998 65.305 9.36873 65.0168 9.12498C64.2963 8.49998 63.8829 8.18748 63.3691 7.88748C62.8554 7.58748 62.4858 7.28748 62.68 7.33123C62.7489 7.34998 62.8554 7.38123 62.9181 7.40623C63.1311 7.49373 63.0183 7.33748 62.7176 7.13748C62.4607 6.96248 62.3918 6.93748 62.2916 6.99998C62.1913 7.06248 62.1224 7.04998 61.8906 6.93748C61.3894 6.68123 60.6189 6.15623 60.0801 5.68748C59.3784 5.08123 58.9963 4.84998 58.3635 4.62498C58.0753 4.51873 57.1481 4.15623 56.3086 3.80623C54.5733 3.08748 52.9883 2.46873 52.7314 2.40623C52.6312 2.38123 52.5622 2.31873 52.5622 2.25623C52.5622 2.04998 52.4244 1.99998 51.8856 1.99998C51.5975 1.99998 51.1025 1.96873 50.7768 1.93123C49.9936 1.83748 49.8621 1.88123 50.3883 2.05623C50.6264 2.13748 50.8018 2.21248 50.7893 2.23123C50.7329 2.28123 49.2231 2.04998 48.8409 1.93123C48.5402 1.84373 48.4588 1.83748 48.3898 1.89998C48.3021 1.99373 48.0766 1.98123 46.9239 1.83748C46.5292 1.78748 46.1157 1.74998 46.0029 1.74998C45.8902 1.74998 45.7962 1.71873 45.7962 1.68748C45.7962 1.64998 45.7022 1.58123 45.5957 1.53123C45.4015 1.44998 45.4328 1.44373 46.1094 1.44373C46.5041 1.44373 47.1745 1.48123 47.5942 1.51873C48.0202 1.56248 48.3397 1.57498 48.3147 1.55623C48.1831 1.42498 47.0742 1.29998 45.6082 1.24373C44.7312 1.21248 43.8791 1.16248 43.7162 1.13123C43.5471 1.10623 43.4155 1.09373 43.4155 1.10623C43.4155 1.11873 43.5408 1.18748 43.6975 1.25623C43.8854 1.33748 44.1861 1.39373 44.562 1.41873C44.9567 1.44373 45.2073 1.49373 45.3576 1.57498L45.5769 1.69373L45.3576 1.65623C44.8565 1.56248 44.23 1.50623 43.7162 1.49998C43.4155 1.49998 43.0459 1.46248 42.9018 1.41248C42.7515 1.36248 42.3317 1.30623 41.9621 1.28123C41.2855 1.23748 41.179 1.19373 41.3607 1.01248C41.5298 0.843727 41.3105 0.79998 40.4898 0.824982C39.8132 0.843727 39.6441 0.868729 39.3935 0.993729C39.1617 1.10623 39.0364 1.12498 38.8422 1.09373C38.5853 1.04998 38.5603 1.02498 38.6417 0.899979C38.6981 0.806229 39.7443 0.58123 40.3395 0.524979C40.6778 0.493729 40.8093 0.506226 40.9221 0.574982C41.0975 0.687477 42.0373 0.76873 42.3505 0.699982C42.5009 0.668732 42.5948 0.599976 42.6512 0.481232C42.7076 0.368729 42.8016 0.293732 42.9206 0.26873C43.0208 0.249977 43.096 0.218727 43.0772 0.20623C43.0647 0.193726 42.789 0.137482 42.4695 0.0937271C41.7428 -0.0187683 40.446 -0.0125198 39.6629 0.0999756ZM40.1578 2.61873C39.9135 2.69998 39.8132 2.75623 39.8195 2.83123C39.8258 2.88748 39.8258 2.93748 39.8195 2.93748C39.8195 2.93748 39.5752 2.98123 39.2807 3.03123C38.7106 3.13123 36.9627 3.15623 37.182 3.06248C37.2509 3.03123 37.4013 3.00623 37.514 3.00623C37.7834 2.99998 37.7145 2.87498 37.4389 2.87498C37.1945 2.87498 35.7599 3.14373 35.2775 3.28123C35.0833 3.33748 34.8703 3.43748 34.8013 3.49998C34.7324 3.55623 34.5507 3.62498 34.3941 3.64373C34.0683 3.68748 33.3291 3.62498 33.3291 3.56248C33.3291 3.53748 33.4168 3.48123 33.5296 3.43123C34.1498 3.17498 32.7339 3.48123 31.5123 3.86248C31.1865 3.96873 30.7104 4.11248 30.466 4.18748C30.2155 4.25623 30.0087 4.34998 30.0087 4.38123C30.0087 4.41873 30.0463 4.43748 30.0902 4.41873C30.1403 4.39998 30.4974 4.36873 30.8921 4.34998C31.5875 4.30623 31.6 4.31248 31.4559 4.41873C31.3745 4.48123 31.2053 4.62498 31.08 4.74373C30.9547 4.85623 30.7542 4.99998 30.6352 5.06248C30.4159 5.17498 29.9649 5.28748 29.8646 5.26248C29.8396 5.25623 29.5952 5.30623 29.3196 5.37498C29.0502 5.44373 28.7808 5.49998 28.7181 5.49998C28.6179 5.49998 28.6179 5.49373 28.7181 5.38123C28.8247 5.26248 28.8184 5.26248 28.6116 5.28123C28.3986 5.29998 27.3336 5.71248 27.2208 5.81873C27.1206 5.91248 27.2835 5.88123 27.7534 5.71248C28.004 5.62498 28.217 5.56248 28.2295 5.58123C28.2859 5.63123 27.7283 5.91873 26.7823 6.33123C26.2686 6.55623 25.5231 6.88123 25.1346 7.05623C24.4768 7.34998 23.819 7.58123 23.2051 7.74373C22.7978 7.84998 22.5285 8.06248 22.5034 8.29373C22.4783 8.56248 22.2277 8.76873 21.4321 9.18123C20.9497 9.43748 20.7492 9.58123 20.6427 9.74373C20.5676 9.86873 20.4423 10.025 20.3671 10.0875C20.2982 10.1562 20.2355 10.2562 20.2355 10.3125C20.2355 10.375 20.0789 10.5187 19.8784 10.6562C19.4712 10.9187 19.2331 11.1187 19.2331 11.2C19.2331 11.3125 19.3772 11.2312 20.0162 10.75C20.6051 10.3062 20.9247 10.15 20.9247 10.2937C20.9247 10.325 20.8181 10.4312 20.6929 10.5437C20.5613 10.6562 20.4924 10.7437 20.5362 10.75C20.5801 10.75 20.8432 10.5312 21.1314 10.2562C21.6639 9.74998 21.9834 9.53748 22.1651 9.57498C22.2403 9.59373 22.1839 9.64998 21.9959 9.74373C21.8393 9.82498 21.5574 10.05 21.3569 10.2437C20.9372 10.6562 20.4924 11.0375 19.8909 11.5C19.6529 11.6875 19.3522 11.925 19.2269 12.0375C18.9888 12.2437 18.7507 12.35 18.6818 12.2875C18.663 12.2625 18.8385 12.0437 19.0828 11.8C19.5589 11.3125 19.5151 11.2937 18.9763 11.7625C18.7821 11.925 18.6067 12.0625 18.5816 12.0625C18.5189 12.0625 18.5377 11.75 18.6067 11.6187C18.6881 11.4812 17.8799 11.9687 17.5917 12.2375C17.4915 12.325 17.4163 12.3625 17.4163 12.325C17.4163 12.1812 17.2722 12.25 16.7523 12.625C16.1195 13.0875 15.9065 13.1625 16.2949 12.8C16.652 12.4625 17.4163 11.9312 17.9802 11.6312C18.212 11.5062 18.7069 11.2 19.0828 10.95C19.6278 10.5812 19.7907 10.4375 19.9348 10.1875C20.035 10.0125 20.0977 9.87498 20.0852 9.87498C20.0664 9.87498 19.7782 10.0875 19.4461 10.35C19.0577 10.65 18.8071 10.8062 18.7445 10.7812C18.6818 10.7562 18.5377 10.85 18.3435 11.0437C18.1806 11.2062 18.0428 11.3125 18.0428 11.2875C18.0428 11.1937 18.6192 10.4187 18.945 10.075C19.1141 9.89998 19.2206 9.74998 19.183 9.74998C19.1454 9.74998 18.851 9.92498 18.5315 10.1375C18.1117 10.4125 17.5792 10.8875 16.6332 11.8125C15.9128 12.5187 15.2174 13.1687 15.0983 13.2562C14.9793 13.3375 14.4969 13.7812 14.0333 14.2375C13.1625 15.1 12.4859 15.6812 11.922 16.0375C11.5399 16.2875 10.8821 16.5875 10.9134 16.5C10.9259 16.4687 11.1139 16.1875 11.3331 15.875C11.6777 15.3875 11.7591 15.3062 11.8782 15.3375C12.0285 15.375 12.4107 14.9687 13.6825 13.4062C14.522 12.375 15.2048 11.6312 15.9253 10.9687C16.6332 10.3125 16.865 10.1875 16.32 10.75C16.1132 10.9625 16.0005 11.1125 16.0694 11.075C16.226 10.9937 16.4891 10.7125 16.9402 10.1437C17.1344 9.89373 17.4289 9.59998 17.5917 9.49373C17.7672 9.36873 17.8423 9.33748 17.7797 9.41873C17.717 9.48748 17.6669 9.55623 17.6669 9.56873C17.6669 9.64373 18.4876 9.19373 18.7946 8.94373C19.7281 8.19998 21.0374 7.44998 22.9607 6.56248C23.6499 6.24373 24.2513 5.93123 24.3014 5.86248C24.4267 5.69373 25.0908 5.24998 25.2224 5.24998C25.3101 5.24998 25.3163 5.26248 25.2411 5.34998C25.166 5.44373 25.1722 5.44998 25.3101 5.39998C25.5481 5.31873 26.0744 5.33123 26.1057 5.42498C26.1245 5.47498 25.8676 5.63123 25.3978 5.84373C24.9968 6.03748 24.6773 6.20623 24.6961 6.22498C24.7588 6.28123 25.711 5.98748 26.1746 5.76873C26.4753 5.63123 26.6507 5.50623 26.6883 5.41248C26.7635 5.21873 28.4863 4.12498 29.0377 3.92498C29.6078 3.71873 30.5036 3.47498 30.5475 3.51873C30.5663 3.53748 30.8106 3.45623 31.0863 3.33748C31.4434 3.18748 31.6125 3.14373 31.6689 3.18748C31.8318 3.32498 32.4708 3.32498 33.0472 3.19373C33.3604 3.12498 34.0496 2.96873 34.5821 2.84373C35.2211 2.69998 35.7787 2.61248 36.2047 2.59373C36.5618 2.57498 36.875 2.54998 36.8875 2.53123C36.9063 2.51248 37.727 2.49998 38.7106 2.50623C40.5024 2.51248 40.5024 2.51248 40.1578 2.61873ZM44.6059 3.24998C45.4829 3.28748 46.8362 3.36248 47.613 3.41248C48.9349 3.50623 49.104 3.53123 50.4071 3.84998C51.8355 4.19373 52.1926 4.29998 51.9733 4.30623C51.7415 4.31873 51.9921 4.48123 52.4557 4.61873C52.7001 4.69373 53.1637 4.84373 53.4707 4.94373C53.7839 5.04373 54.1598 5.14373 54.3039 5.15623C54.6297 5.18748 54.9805 5.29373 55.181 5.41873C55.2937 5.48748 55.3125 5.52498 55.2561 5.59373C55.206 5.65623 55.2373 5.69998 55.394 5.79998C55.6195 5.93748 56.885 6.59373 57.0228 6.64373C57.0667 6.65623 57.0917 6.68748 57.073 6.70623C57.0542 6.72498 56.8662 6.70623 56.6657 6.65623C56.152 6.53748 56.0956 6.53748 56.2648 6.68748L56.4151 6.81248L56.2585 6.78123C56.1708 6.76248 55.7824 6.68123 55.3877 6.59373C54.5607 6.41248 54.5419 6.41248 54.7737 6.53748C54.8677 6.58748 55.206 6.68748 55.5255 6.74998C56.1959 6.89373 56.7597 7.10623 56.7597 7.21873C56.7597 7.25623 56.6908 7.32498 56.6031 7.36248C56.2648 7.51873 54.7299 7.04373 55.0118 6.86873C55.1308 6.79998 55.0369 6.72498 54.6923 6.63123C54.5357 6.58748 54.2538 6.45623 54.0658 6.33748C53.8403 6.19998 53.5584 6.09998 53.2388 6.03748C52.9695 5.98748 52.6875 5.91248 52.6124 5.86873C52.4307 5.77498 52.1864 5.55623 52.1864 5.48748C52.1864 5.45623 52.249 5.43748 52.3304 5.44998C52.4369 5.46248 52.462 5.44373 52.4495 5.34998C52.4307 5.24373 52.4557 5.23748 52.6687 5.26873L52.9068 5.30623L52.7251 5.20623C52.6249 5.15623 52.2929 5.08748 51.9921 5.06248C51.4095 5.01873 51.2842 4.96248 51.2216 4.72498C51.1902 4.59998 51.0524 4.53123 50.2317 4.26248C49.7055 4.08748 49.0351 3.88748 48.7469 3.81248C48.133 3.65623 47.4251 3.56248 47.4251 3.63748C47.4251 3.66248 47.4626 3.68748 47.5065 3.68748C47.5504 3.69373 47.5378 3.72498 47.4689 3.77498C47.3687 3.84998 47.3812 3.86248 47.5942 3.90623C47.8761 3.95623 48.2708 4.11248 48.227 4.15623C48.2144 4.17498 47.6944 4.11873 47.0805 4.03123C45.7962 3.84998 45.6333 3.84373 46.1094 3.99373L46.454 4.09998L45.7335 4.14373C44.7312 4.20623 44.2425 4.19998 43.5784 4.11873C42.8955 4.03748 42.4695 3.93748 42.5071 3.87498C42.5259 3.84373 42.7452 3.80623 43.0021 3.78123C43.3529 3.74998 43.5032 3.75623 43.6411 3.83123C43.7914 3.91248 43.8791 3.91248 44.0921 3.85623C44.2362 3.81873 44.3553 3.76873 44.3553 3.74373C44.3553 3.71873 44.0232 3.63748 43.6223 3.56248C42.1375 3.28748 41.63 3.10623 42.5134 3.15623C42.7828 3.17498 43.7288 3.21873 44.6059 3.24998ZM9.24693 20.9062C9.05272 21.3375 8.83972 21.9 8.7708 22.1437C8.62045 22.6875 8.40118 23.1375 8.04408 23.6687C7.89372 23.8812 7.78096 24.0625 7.79975 24.0625C7.84987 24.0625 7.6306 24.7187 7.32362 25.4687C7.16073 25.8812 6.97905 26.4125 6.92267 26.6437C6.79111 27.2 6.52798 27.7562 6.17088 28.2125C5.98294 28.4562 5.84511 28.725 5.7574 29.0125C5.61331 29.4812 5.6321 29.6187 5.79499 29.3312L5.89523 29.1562L5.85764 29.4687C5.80126 29.9125 5.08706 32.7 5.01188 32.775C4.91164 32.875 4.9367 32.6875 5.07453 32.275C5.23742 31.8062 5.20609 31.6312 5.02441 31.9812C4.94923 32.1312 4.86779 32.25 4.849 32.25C4.79261 32.25 4.88659 31.5687 4.96803 31.3937C5.04947 31.2062 4.96803 31.1187 4.849 31.275C4.76755 31.3937 4.76129 31.3875 4.74876 31.1812C4.7237 30.675 4.89285 30.0875 5.26248 29.3812C5.38777 29.1437 5.40657 29.1562 5.38777 29.5C5.38151 29.6187 5.39404 29.7 5.41283 29.6812C5.45669 29.6375 5.82632 28.4125 5.80126 28.3937C5.78873 28.3812 5.73234 28.475 5.66343 28.5937C5.5444 28.8187 5.48175 28.85 5.34392 28.7625C5.28127 28.725 5.35645 28.4437 5.6321 27.6187C6.008 26.4875 6.15835 26.15 6.46533 25.7C6.64075 25.45 6.82869 25.35 6.82869 25.5125C6.83496 25.5937 7.27977 24.5812 7.36747 24.3C7.40506 24.1625 7.40506 24.1625 7.28603 24.2625C7.21712 24.325 7.12314 24.375 7.06676 24.375C6.92267 24.375 6.79111 24.5625 6.67207 24.9187C6.57184 25.2312 6.4528 25.3562 6.4528 25.1625C6.4528 25 6.5781 24.7312 6.96652 24.05C7.31109 23.4437 7.36747 23.3812 7.49277 23.4125C7.64939 23.4562 7.74337 23.3125 7.78096 22.9625C7.81228 22.7 7.67445 22.7187 7.48024 22.9937C7.38 23.1312 7.27977 23.25 7.26097 23.25C7.17326 23.25 7.71831 21.8375 7.97517 21.3812C8.25708 20.8875 8.37612 20.8 8.54527 20.9687C8.63924 21.0687 8.65804 21.0625 8.7708 20.925C8.95249 20.7125 8.92116 20.85 8.70189 21.2375C8.59539 21.425 8.52647 21.5875 8.539 21.6C8.59539 21.6562 8.87731 21.2562 9.1467 20.7437C9.43488 20.1812 9.52259 20.0437 9.56644 20.0875C9.58524 20.1 9.43488 20.4687 9.24693 20.9062ZM4.47937 32.8125C4.52949 32.8875 4.46057 33.3812 4.3854 33.5062C4.28516 33.6562 4.2601 33.5312 4.29769 33.1375C4.34154 32.7687 4.39166 32.675 4.47937 32.8125ZM3.57096 35.1875C3.67747 36.0312 3.79023 36.8312 3.82156 36.9687C3.89047 37.2562 3.89047 38.6687 3.82156 39.2187C3.79023 39.4812 3.77144 39.2125 3.76517 38.3125C3.75264 36.6625 3.6712 36.4875 3.36422 37.4687C3.27651 37.7437 3.13242 38.3062 3.04471 38.7187C2.95074 39.1312 2.86303 39.4937 2.8505 39.5312C2.73774 39.775 3.00086 36.2687 3.16375 35.3125C3.21387 35.025 3.23266 34.775 3.20134 34.75C3.17628 34.7312 3.17628 34.5 3.20134 34.2375C3.24519 33.8 3.30157 33.5812 3.35169 33.6375C3.36422 33.65 3.46446 34.35 3.57096 35.1875ZM4.06589 41.8562C4.10348 41.9562 4.17866 42.225 4.22877 42.4687C4.28516 42.7062 4.41046 43.15 4.51069 43.4437C4.7049 44.0062 4.849 45.125 4.71743 45.0437C4.67984 45.0187 4.63599 44.875 4.62346 44.725C4.60467 44.5625 4.50443 44.3062 4.37913 44.1125C4.19745 43.8187 4.17239 43.7312 4.17866 43.3875C4.18492 43.1062 4.16613 43 4.11601 43.0187C4.07215 43.0312 4.03456 43.1312 4.02203 43.2375C3.99697 43.4937 3.90927 43.4937 3.85915 43.2437C3.80903 42.9812 3.80903 41.7812 3.86541 41.7312C3.94059 41.65 3.99697 41.6875 4.06589 41.8562ZM1.55994 45.8437V45.9687L1.50356 45.8437C1.47223 45.775 1.44717 45.675 1.44717 45.625C1.44091 45.5437 1.44717 45.5437 1.50356 45.625C1.53488 45.675 1.55994 45.775 1.55994 45.8437ZM5.03694 49.85C5.09333 49.875 5.13718 49.9625 5.13718 50.0625C5.13718 50.3375 5.03068 50.3375 4.96176 50.0625C4.93044 49.925 4.91164 49.8125 4.91791 49.8125C4.93044 49.8125 4.98056 49.8312 5.03694 49.85ZM6.00173 52.325C6.21474 52.7812 6.54051 53.5187 6.73472 53.9687C6.92893 54.4125 7.26724 55.1312 7.49277 55.5562C7.71204 55.9812 7.89372 56.3625 7.89372 56.4125C7.89372 56.6187 7.76843 56.4562 7.39253 55.775C7.167 55.375 6.97905 55.075 6.97279 55.1062C6.89761 55.3312 8.26335 57.675 8.47636 57.6937C8.52021 57.7 8.58912 57.7062 8.63298 57.7125C8.67683 57.7125 8.79586 57.8625 8.8961 58.0437C9.05272 58.3125 9.06525 58.3687 8.98381 58.4C8.92743 58.4187 8.83972 58.4125 8.78333 58.3812C8.62045 58.2937 8.00023 57.625 7.83734 57.3562C7.6118 56.9937 7.6118 57.125 7.83107 57.5625C7.93758 57.775 7.99396 57.9312 7.95637 57.9062C7.8624 57.85 7.64939 57.4062 7.09808 56.1625C6.55304 54.9187 6.37762 54.5 6.42148 54.5C6.44027 54.5 6.50919 54.6125 6.5781 54.7562C6.65328 54.9 6.72846 55 6.74099 54.9812C6.75978 54.9625 6.54678 54.4062 6.27112 53.7375C5.85138 52.725 5.51307 51.7437 5.51307 51.55C5.51307 51.3625 5.66969 51.6125 6.00173 52.325ZM14.3716 61.9937C14.4718 62.0937 14.5157 62.1875 14.4844 62.2125C14.4155 62.2562 14.0333 61.9625 14.0333 61.8687C14.0333 61.7562 14.2024 61.8187 14.3716 61.9937Z" fill="#FEFEFE"/>
<path d="M29.2882 4.71875C29.0314 4.83125 29.2694 4.8375 29.5702 4.71875C29.7644 4.64375 29.7706 4.63125 29.6328 4.63125C29.5451 4.63125 29.3947 4.66875 29.2882 4.71875Z" fill="#FEFEFE"/>
<path d="M25.2349 6.28124C24.8903 6.46249 24.8089 6.56249 25.0093 6.56249C25.0908 6.56249 25.2662 6.46249 25.404 6.34374C25.6985 6.09374 25.6421 6.06874 25.2349 6.28124Z" fill="#FEFEFE"/>
<path d="M23.18 7.19375C22.8542 7.325 22.5284 7.4375 22.4595 7.4375C22.3468 7.4375 20.7367 8.225 20.7367 8.28125C20.7367 8.29375 20.7931 8.2875 20.862 8.26875C21.0938 8.20625 20.9873 8.35 20.5613 8.675C20.129 9 19.9974 9.05 19.8847 8.9375C19.8408 8.89375 19.6904 8.96875 19.4336 9.1625C19.2206 9.31875 19.0452 9.4625 19.0452 9.475C19.0452 9.51875 19.2832 9.38125 19.3271 9.3125C19.396 9.2 19.49 9.25 19.4524 9.375C19.396 9.54375 19.4336 9.5375 19.7782 9.2875C20.2104 8.98125 20.436 8.88125 20.6114 8.9125C20.7179 8.9375 20.8996 8.8625 21.1878 8.69375C21.4196 8.55 21.62 8.4375 21.6388 8.4375C21.6576 8.4375 21.808 8.34375 21.9709 8.23125C22.14 8.1125 22.5848 7.83125 22.967 7.60625C24.151 6.9 24.2137 6.76875 23.18 7.19375Z" fill="#FEFEFE"/>
<path d="M14.4405 13.2312C14.1899 13.3625 13.9706 13.5625 13.9706 13.6687C13.9706 13.8125 14.0584 13.7625 14.3779 13.4375C14.7162 13.0937 14.7162 13.0812 14.4405 13.2312Z" fill="#FEFEFE"/>
<path d="M12.5673 15.2C12.4796 15.3125 12.4232 15.4125 12.442 15.4312C12.4671 15.4625 12.6112 15.3 12.7239 15.1062C12.8242 14.9312 12.7365 14.9812 12.5673 15.2Z" fill="#FEFEFE"/>
<path d="M44.6685 3.93748C44.6685 3.96873 44.7876 3.99998 44.9379 3.99373C45.1634 3.98748 45.176 3.98123 45.0444 3.93748C44.8189 3.86248 44.6685 3.86248 44.6685 3.93748Z" fill="#FEFEFE"/>
<path d="M54.6609 5.97499C54.7925 6.11249 55.3626 6.34999 55.4253 6.28749C55.4503 6.26874 54.6108 5.81249 54.5482 5.81249C54.5231 5.81249 54.5795 5.88749 54.6609 5.97499Z" fill="#FEFEFE"/>
<path d="M8.0942 22.6375C7.91878 22.9187 7.74336 23.375 7.79348 23.4187C7.81228 23.4375 7.93131 23.2375 8.05661 22.975C8.28841 22.4625 8.31347 22.2875 8.0942 22.6375Z" fill="#FEFEFE"/>
<path d="M44.7312 0.412491C44.6435 0.456241 44.3866 0.512491 44.1611 0.537491C43.9293 0.556241 43.7037 0.599991 43.6599 0.631241C43.4782 0.743741 43.6912 0.762491 44.2613 0.687491C44.5871 0.643741 44.9567 0.624991 45.0757 0.643741C45.3201 0.681241 45.3138 0.631241 45.0569 0.449991C44.9128 0.349991 44.869 0.343741 44.7312 0.412491Z" fill="#FEFEFE"/>
<path d="M32.3267 0.750003C29.7017 1.19375 27.816 1.60625 27.816 1.74375C27.816 1.76875 27.8786 1.825 27.9601 1.85625C28.0917 1.91875 28.0791 1.93125 27.7534 2.0875C27.3273 2.2875 27.2208 2.29375 27.3148 2.13125C27.4777 1.825 26.9139 1.94375 26.4503 2.3125C26.2811 2.45 26.1182 2.5625 26.0932 2.5625C26.0305 2.5625 25.1848 3.11875 25.1848 3.1625C25.1848 3.2 25.379 3.1 25.6609 2.90625C25.8864 2.75625 26.538 2.58125 26.6131 2.65625C26.6382 2.68125 26.5568 2.78125 26.4377 2.88125C26.3187 2.975 26.2435 3.0625 26.2686 3.0625C26.3625 3.0625 26.6821 2.875 26.7322 2.7875C26.7572 2.74375 27.0392 2.625 27.3461 2.53125C27.6594 2.44375 28.2232 2.2 28.5991 2C29.5952 1.48125 30.6477 1.16875 31.199 1.23125C31.4183 1.25625 31.6564 1.20625 32.2641 1.00625C33.091 0.737503 33.7238 0.625003 33.7927 0.737503C33.8115 0.775003 33.7112 0.818753 33.5358 0.843753C32.9783 0.925003 31.7002 1.38125 31.7002 1.49375C31.7002 1.51875 31.9571 1.475 32.2766 1.39375C32.5961 1.3125 33.2351 1.2 33.705 1.14375C34.1686 1.0875 34.5633 1.03125 34.5758 1.01875C34.5946 1.00625 34.5445 0.956253 34.4693 0.900003C34.2939 0.775003 34.2939 0.712503 34.4943 0.531253C34.5946 0.437503 34.6259 0.375003 34.5758 0.381253C34.5257 0.381253 33.517 0.550003 32.3267 0.750003Z" fill="#FEFEFE"/>
<path d="M35.8351 0.499992C35.7662 0.543742 35.8037 0.562492 35.9792 0.562492C36.1045 0.562492 36.211 0.531242 36.211 0.499992C36.211 0.418742 35.9604 0.418742 35.8351 0.499992Z" fill="#FEFEFE"/>
<path d="M29.7581 1.74999C29.708 1.78124 29.6955 1.81249 29.7268 1.81249C29.7644 1.81249 29.8333 1.78124 29.8834 1.74999C29.9335 1.71874 29.9523 1.68749 29.9147 1.68749C29.8834 1.68749 29.8082 1.71874 29.7581 1.74999Z" fill="#FEFEFE"/>
<path d="M39.1868 4.63123C39.1179 4.65623 38.9487 4.68123 38.8171 4.68123C38.6292 4.68748 38.5853 4.70623 38.6355 4.75623C38.7169 4.83748 39.406 4.77498 39.406 4.68748C39.406 4.59998 39.3183 4.57498 39.1868 4.63123Z" fill="#FEFEFE"/>
<path d="M51.61 6.54388C51.6538 6.56238 51.7102 6.55622 51.729 6.53772C51.7541 6.51922 51.7165 6.50072 51.6476 6.50688C51.5787 6.50688 51.5599 6.52538 51.61 6.54388Z" fill="#FEFEFE"/>
<path d="M29.7205 6.76249L29.6015 6.90624L29.7456 6.78749C29.8772 6.67499 29.9147 6.62499 29.8646 6.62499C29.8521 6.62499 29.7894 6.68749 29.7205 6.76249Z" fill="#FEFEFE"/>
<path d="M51.491 7.06249C51.6476 7.13124 51.8167 7.18124 51.8669 7.16874C51.9859 7.13749 51.6852 7.00624 51.4033 6.96249C51.2466 6.93749 51.2592 6.95624 51.491 7.06249Z" fill="#FEFEFE"/>
<path d="M15.1171 8.69374C14.7788 8.98749 14.6723 9.14999 14.948 8.95624C15.1547 8.80624 15.5181 8.43749 15.4554 8.43749C15.4366 8.43749 15.2863 8.55624 15.1171 8.69374Z" fill="#FEFEFE"/>
<path d="M64.9667 8.84375C64.9667 8.875 65.5055 9.25 65.5556 9.25C65.6621 9.25 65.5618 9.1375 65.3175 8.98125C65.0544 8.81875 64.9667 8.78125 64.9667 8.84375Z" fill="#FEFEFE"/>
<path d="M14.2525 9.38125C13.9017 9.7375 14.0395 9.7 14.4718 9.31875C14.641 9.16875 14.7161 9.0625 14.6598 9.0625C14.6034 9.0625 14.4217 9.20625 14.2525 9.38125Z" fill="#FEFEFE"/>
<path d="M10.8632 12.4562C10.4122 12.9437 9.96111 13.4437 9.86087 13.5625C9.70425 13.7625 9.69798 13.7687 9.83581 13.6562C9.92352 13.5875 10.1365 13.4 10.3182 13.2375C10.4936 13.0687 10.7004 12.9375 10.763 12.9375C10.9196 12.9375 11.2705 12.5125 11.5211 12.0062C11.6338 11.7937 11.7153 11.6062 11.7027 11.5937C11.6902 11.5812 11.3143 11.9687 10.8632 12.4562Z" fill="#FEFEFE"/>
<path d="M15.4241 14.725C15.1484 14.9625 15.0983 15.0625 15.2612 15.0625C15.3301 15.0625 15.3489 15.1 15.3113 15.2C15.2675 15.3375 15.2737 15.3375 15.4178 15.2313C15.6308 15.075 15.9503 14.9375 16.0944 14.9375C16.2197 14.9375 16.32 14.775 16.2322 14.7188C16.2009 14.7063 16.0506 14.7375 15.8877 14.7938C15.5556 14.9188 15.4805 14.8813 15.6246 14.6563C15.7624 14.45 15.7311 14.4563 15.4241 14.725Z" fill="#FEFEFE"/>
<path d="M8.4513 15.1437C8.10674 15.575 8.13806 15.6437 8.48263 15.2187C8.61419 15.0625 8.69563 14.9375 8.66431 14.9375C8.63925 14.9375 8.53901 15.0312 8.4513 15.1437Z" fill="#FEFEFE"/>
<path d="M6.74101 18.8125C6.6533 18.95 6.57812 19.0687 6.57812 19.0875C6.57812 19.1 6.67836 19.0625 6.7974 19.0062C6.96655 18.9312 7.0104 18.8687 7.01667 18.7312C7.01667 18.4937 6.93522 18.5187 6.74101 18.8125Z" fill="#FEFEFE"/>
<path d="M11.8218 19.5125C11.283 20.4062 11.1514 20.675 11.1514 20.8562C11.1514 21.0312 11.3206 20.825 11.7842 20.0875C12.0536 19.65 12.2165 19.3375 12.1914 19.275C12.1726 19.225 12.2102 19.0687 12.2854 18.925C12.3543 18.7875 12.3981 18.6625 12.3856 18.65C12.3731 18.6312 12.1162 19.025 11.8218 19.5125Z" fill="#FEFEFE"/>
<path d="M74.151 23.775C74.2136 23.9312 74.2262 24.0312 74.1823 24.0562C74.1447 24.0812 74.2074 24.2 74.3327 24.3437C74.4454 24.4812 74.5582 24.575 74.5833 24.55C74.6334 24.5 74.3452 23.9125 74.1572 23.675C74.057 23.5375 74.0507 23.5375 74.151 23.775Z" fill="#FEFEFE"/>
<path d="M75.8738 24.0312C75.8863 24.0625 75.9866 24.2625 76.0931 24.4687C76.4564 25.1687 77.1706 27.125 77.0641 27.125C76.9952 27.125 76.7446 26.8437 76.7446 26.7687C76.7446 26.525 76.0868 24.6375 76.0179 24.7C76.0116 24.7125 76.1244 25.1312 76.2748 25.625C76.5755 26.6125 76.6694 27.0625 76.5692 27.0625C76.5379 27.0625 76.4439 26.9 76.3625 26.7C76.281 26.5062 76.2058 26.3875 76.1933 26.4375C76.1745 26.5562 76.8824 27.8625 76.92 27.7625C76.9326 27.7187 76.9012 27.5562 76.8449 27.3937C76.7258 27.05 76.7196 26.975 76.8135 27.0375C76.9138 27.1 77.2082 27.7625 77.3648 28.2812C77.4651 28.6187 77.5277 28.7375 77.653 28.7937C77.7407 28.8312 77.8096 28.8437 77.8096 28.8125C77.8096 28.7875 77.7282 28.5625 77.6217 28.3125C77.5215 28.0625 77.4338 27.8312 77.4338 27.7937C77.4338 27.65 77.628 27.9125 77.7407 28.225C77.8096 28.4062 77.9224 28.6125 77.9913 28.6812C78.054 28.7437 78.1229 28.8375 78.1354 28.8812C78.1542 28.9312 78.1918 28.95 78.2169 28.925C78.3923 28.7625 77.108 25.7812 76.3813 24.6437C76.0993 24.2062 75.7924 23.8375 75.8738 24.0312Z" fill="#FEFEFE"/>
<path d="M74.9279 24.775C74.9279 24.8437 75.4478 25.7562 75.4729 25.7312C75.5105 25.6875 75.0344 24.75 74.978 24.75C74.9529 24.75 74.9279 24.7625 74.9279 24.775Z" fill="#FEFEFE"/>
<path d="M75.0907 25.625C75.1283 25.8437 75.2097 25.9875 75.2661 25.9312C75.2849 25.9187 75.241 25.7937 75.1721 25.6562L75.0531 25.4062L75.0907 25.625Z" fill="#FEFEFE"/>
<path d="M73.7125 27.3312C73.7313 27.3937 73.7689 27.425 73.7876 27.4062C73.8064 27.3875 73.7876 27.3375 73.7438 27.2937C73.6811 27.2375 73.6749 27.2437 73.7125 27.3312Z" fill="#FEFEFE"/>
<path d="M74.5331 27.7437C74.6584 27.9562 74.7712 28.1125 74.79 28.1C74.8338 28.0562 74.4642 27.4187 74.3827 27.3875C74.3389 27.375 74.4078 27.5375 74.5331 27.7437Z" fill="#FEFEFE"/>
<path d="M73.9881 27.5375C73.9881 27.6562 74.1385 27.9687 74.8714 29.375C75.0281 29.6687 75.1847 29.9875 75.2285 30.0937C75.2975 30.2687 75.2975 30.2562 75.2787 29.9375C75.2599 29.75 75.216 29.4437 75.1784 29.2625C75.122 29.0062 75.0782 28.9375 74.9842 28.9375C74.8965 28.9375 74.7837 28.775 74.5457 28.2937C74.3765 27.9437 74.176 27.6 74.1071 27.5312C73.9881 27.4125 73.9881 27.4125 73.9881 27.5375Z" fill="#FEFEFE"/>
<path d="M76.494 28.0437C76.494 28.1625 77.0015 29.575 77.1393 29.8562C77.3022 30.1812 77.6029 31.5125 77.6655 32.2187C77.7094 32.6937 77.9036 33.1187 78.0164 33.0062C78.054 32.9687 78.1417 32.9375 78.2043 32.9375C78.3296 32.9375 78.3296 32.975 78.2043 32.2812C78.1417 31.9687 78.267 32.1625 78.5301 32.8062C78.6679 33.1437 78.812 33.4187 78.8433 33.425C78.9686 33.4437 78.906 32.3562 78.7243 31.4562C78.5614 30.6312 78.5364 30.575 78.4299 30.6437C78.3484 30.6937 78.3108 30.8062 78.2983 31.0562L78.2795 31.4L78.0414 31.0375C77.8472 30.75 77.7783 30.55 77.653 29.9437C77.5152 29.275 77.2834 28.6937 77.1142 28.5937C77.0265 28.5375 77.0453 28.7687 77.1518 29.0187C77.2646 29.2875 77.2771 29.4312 77.1832 29.3375C77.1456 29.3 77.0077 28.9937 76.8824 28.6562C76.7509 28.3187 76.6131 28.0312 76.5692 28.0125C76.5316 28 76.494 28.0125 76.494 28.0437Z" fill="#FEFEFE"/>
<path d="M0.670335 32.7312C0.657805 32.7625 0.626481 32.8875 0.601421 33.0125C0.563832 33.2063 0.576362 33.25 0.657805 33.25C0.726719 33.25 0.751778 33.1812 0.751778 32.9688C0.751778 32.7 0.726719 32.6312 0.670335 32.7312Z" fill="#FEFEFE"/>
<path d="M78.0979 34.325C78.1041 35.05 78.2232 35.65 78.4048 35.8687C78.6304 36.1375 78.6805 36.875 78.4738 36.875C78.4174 36.875 78.4174 37.0312 78.4863 37.5312C78.5427 37.9125 78.6053 38.1687 78.6429 38.1437C78.6742 38.125 78.6868 37.9875 78.6617 37.8375C78.6429 37.675 78.6492 37.5625 78.6868 37.5625C78.7619 37.5625 78.7494 37.4375 78.8058 38.55C78.8434 39.1812 78.8872 39.5312 78.9374 39.5812C79 39.6437 79.0063 39.55 78.9687 39.125C78.9436 38.8312 78.9186 37.8375 78.906 36.9187C78.881 35.0562 78.8309 34.7562 78.5051 34.5125C78.3923 34.4312 78.2858 34.2625 78.2169 34.0625C78.1605 33.8937 78.1104 33.75 78.1041 33.75C78.0979 33.75 78.0916 34.0125 78.0979 34.325Z" fill="#FEFEFE"/>
<path d="M5.80754 35.7937C5.78875 35.8187 5.75743 36.1062 5.73237 36.425C5.69478 36.8375 5.70731 37 5.75743 37C5.80128 37 5.82634 36.8562 5.8326 36.6062L5.83887 36.2187L5.92658 36.4687L6.01429 36.7187L5.98296 36.2875C5.9579 35.8812 5.88272 35.675 5.80754 35.7937Z" fill="#FEFEFE"/>
<path d="M76.281 43.3312C76.2497 43.7375 76.2435 44.0812 76.256 44.1C76.3186 44.1625 76.4189 43.0875 76.375 42.8437C76.3374 42.6437 76.3186 42.7375 76.281 43.3312Z" fill="#FEFEFE"/>
<path d="M0.212973 43.6562C0.269357 43.9875 0.382124 44.3312 0.419713 44.2875C0.463567 44.2437 0.306946 43.5437 0.231767 43.4687C0.194178 43.4312 0.187913 43.4937 0.212973 43.6562Z" fill="#FEFEFE"/>
<path d="M4.19745 57.225C4.19745 57.2625 4.29769 57.6313 4.41672 58.0375C4.64225 58.7938 5.24368 60.1063 5.43163 60.2625C5.49428 60.3063 5.46295 60.2188 5.36271 60.0438C5.16224 59.7063 5.17477 59.5875 5.38151 59.85C5.58825 60.1125 5.53187 59.95 5.22489 59.375C5.062 59.0813 4.76755 58.4625 4.56708 58C4.3666 57.5375 4.19745 57.1875 4.19745 57.225Z" fill="#FEFEFE"/>
<path d="M9.33466 57.425C9.33466 57.4688 9.37851 57.6063 9.42863 57.7313C9.53513 57.9875 9.54766 58.0875 9.45995 58.0313C9.32839 57.95 9.40357 58.125 9.66669 58.5C9.81079 58.7125 9.96114 58.9313 9.99247 58.9875C10.0301 59.0438 10.1491 59.2313 10.2556 59.4C10.6377 59.9813 10.6002 60.3063 10.1992 59.9875C9.8609 59.725 9.94861 59.8688 10.5187 60.525C11.0074 61.0813 11.2266 61.2313 10.7944 60.7063C10.2932 60.1 10.2994 60.1 11.59 61.0875C12.3293 61.65 12.5736 61.7875 12.3042 61.4938C12.2416 61.4188 12.0223 61.2313 11.8218 61.0813C11.6213 60.925 11.471 60.7688 11.4835 60.7313C11.496 60.6938 11.3457 60.4438 11.1515 60.1813C10.951 59.9125 10.4874 59.1938 10.1178 58.5813C9.39104 57.3938 9.33466 57.3063 9.33466 57.425Z" fill="#FEFEFE"/>
<path d="M6.2022 60.4063C6.2022 60.425 6.24605 60.5438 6.29617 60.6688C6.434 61 6.40894 61.0625 6.23979 60.7938C6.03931 60.4688 6.02052 60.4625 6.04558 60.7125C6.08317 61.1375 6.62195 62.375 6.94772 62.8063L7.11061 63.025L7.14193 62.7875L7.17325 62.55L7.83107 63.3438C8.28214 63.8813 8.55153 64.275 8.68935 64.5813C8.92742 65.1063 8.95248 65.25 8.78959 65.1188C8.56405 64.9313 8.82718 65.2875 9.24066 65.7375C9.50379 66.0188 9.9298 66.3625 10.4185 66.6938C10.8382 66.975 11.3394 67.3375 11.5273 67.4938C11.8093 67.7375 11.8468 67.75 11.7341 67.5938C11.6589 67.4875 11.5148 67.3188 11.402 67.2188C11.1577 66.9875 11.0449 66.8 11.1765 66.85C11.2454 66.875 11.2579 66.85 11.2392 66.7375C11.2078 66.6125 11.2329 66.625 11.3832 66.8125C11.4772 66.9313 11.7341 67.2313 11.9533 67.475C12.323 67.9063 12.4545 68.1063 12.2478 67.9375C12.1977 67.8938 12.1538 67.875 12.1538 67.8938C12.1538 67.95 13.1186 68.8625 13.6887 69.3375C14.2275 69.7938 14.4593 69.9375 14.2776 69.7063C14.1774 69.5813 14.1461 69.5563 14.9166 70.1125C15.3928 70.4563 16.3889 70.9813 16.4453 70.925C16.4891 70.8875 16.0944 70.6375 15.2863 70.1875C14.4154 69.7063 13.7702 69.1938 13.2439 68.5813C12.9307 68.2188 12.9181 68.1375 13.1813 68.2563C13.3817 68.35 13.4381 68.3063 13.3504 68.1375C13.2815 68.0125 12.0661 67 11.9847 67C11.9596 67 12.0223 67.0813 12.1225 67.1875C12.2227 67.2875 12.2791 67.3938 12.2541 67.4188C12.2353 67.4438 11.8844 67.1188 11.4772 66.7C11.0763 66.2813 10.7004 65.9375 10.644 65.9375C10.5312 65.9375 9.32837 64.2375 8.75827 63.2625C8.55153 62.9125 8.35731 62.625 8.32599 62.625C8.24455 62.625 8.25708 62.6688 8.38237 62.8625L8.48888 63.0313L8.29467 62.8938C7.98142 62.675 7.66191 62.2813 7.45517 61.875C7.22337 61.4125 7.03543 61.3438 7.20458 61.7813C7.32361 62.0938 7.15446 61.8688 6.70339 61.125C6.28364 60.4313 6.2022 60.3188 6.2022 60.4063Z" fill="#FEFEFE"/>
<path d="M12.5798 62.0062C12.6112 62.2125 12.6299 62.225 12.749 62.1C12.8179 62.0312 12.8242 62 12.7615 61.9562C12.5798 61.8125 12.5548 61.8187 12.5798 62.0062Z" fill="#FEFEFE"/>
<path d="M14.0395 62.8875C14.2149 63.0375 14.3841 63.45 14.3152 63.5562C14.2964 63.5937 14.3841 63.675 14.5157 63.7437C14.6472 63.8062 14.854 63.9687 14.973 64.0875C15.1797 64.3062 15.186 64.3125 15.0356 64.3C14.5783 64.25 15.0419 64.95 15.8814 65.575C17.2659 66.6062 18.7758 67.3875 21.4885 68.4812C22.3217 68.8187 22.7101 69.0062 22.8667 69.1562C23.1424 69.4187 23.9255 69.9062 24.9028 70.4187C25.7611 70.8687 25.6985 70.9312 24.7149 70.6C24.3703 70.4812 24.0759 70.4 24.0633 70.4125C24.0508 70.425 24.3891 70.6 24.8151 70.8062L25.592 71.175L25.7862 71.0562C25.8927 70.9875 26.0305 70.9375 26.0869 70.9375C26.2372 70.9375 27.0642 71.3625 27.0642 71.4437C27.0642 71.4812 27.0266 71.5 26.9828 71.4812C26.9326 71.4625 26.7322 71.4312 26.5254 71.4062L26.1558 71.3687L26.3124 71.4937C26.5129 71.6562 26.9953 71.8062 27.4338 71.8437L27.7847 71.875L27.5278 71.7562C27.2083 71.6125 27.1644 71.5437 27.2647 71.3812C27.3649 71.2187 27.2709 71.1125 26.8199 70.9C26.6257 70.8062 26.5004 70.7187 26.5379 70.7062C26.7384 70.6375 28.4613 71.2062 28.8622 71.475C28.9499 71.525 29 71.6125 28.9812 71.6562C28.9374 71.775 29.4699 71.9687 30.3533 72.1625C30.7354 72.2437 31.2992 72.3687 31.6062 72.4375C31.9195 72.5062 32.3705 72.6625 32.6149 72.7812C32.9532 72.95 33.1411 73 33.4293 73.0062C33.8992 73.0187 34.5319 72.8875 34.5006 72.7937C34.4881 72.75 34.2813 72.6562 34.0433 72.5812C33.7488 72.4937 33.6674 72.4437 33.7864 72.4437C33.8804 72.4375 33.9556 72.4062 33.9556 72.375C33.9556 72.3 33.5358 72.2937 33.5045 72.3687C33.4982 72.4 33.1912 72.325 32.8279 72.2125C32.0636 71.9687 32.1325 71.9812 32.1513 72.075C32.1826 72.2312 30.9609 72.1 30.4472 71.8937C30.3783 71.8687 30.3971 71.8437 30.5099 71.8125C30.6414 71.775 30.6038 71.7562 30.2906 71.6937C29.6579 71.5687 28.8747 71.3125 28.8434 71.2187C28.8246 71.1687 28.6492 71.1 28.455 71.0625C28.2545 71.025 27.8034 70.9062 27.4401 70.8C27.0767 70.6937 26.7322 70.5937 26.6758 70.5812C26.5192 70.5375 26.5379 70.4375 26.7071 70.4312C26.7823 70.4312 26.6006 70.35 26.3061 70.25C26.0054 70.15 25.4854 69.9312 25.1471 69.7625C24.5269 69.45 23.418 68.7562 23.3429 68.6312C23.3178 68.6 23.2614 68.5812 23.2113 68.6C23.0296 68.6687 22.2402 68.075 22.2402 67.875C22.2402 67.8125 22.1839 67.7437 22.1149 67.7187C21.9458 67.6625 21.3506 67.2187 20.3921 66.4375C19.6779 65.85 18.9324 65.3125 18.8259 65.3125C18.8071 65.3125 18.3623 65.1125 17.836 64.8687C16.7898 64.3812 15.7498 63.825 14.6911 63.1937C13.9205 62.7312 13.8015 62.675 14.0395 62.8875Z" fill="#FEFEFE"/>
<path d="M68.0114 68.0375C67.6794 68.4 67.4601 68.5625 67.5728 68.3562C67.6794 68.175 67.4037 68.5062 67.1218 68.9062C66.7584 69.425 66.8336 69.375 67.8046 68.4687C68.1743 68.125 68.475 67.8125 68.475 67.7687C68.475 67.6 68.3622 67.6625 68.0114 68.0375Z" fill="#FEFEFE"/>
<path d="M19.4524 68.0562L19.2645 68.0937L19.5151 68.2812C19.6529 68.3875 19.8972 68.6 20.0601 68.7625C20.223 68.9187 20.5362 69.1375 20.7492 69.2375C20.9685 69.3437 21.3695 69.5312 21.6451 69.6625C21.9208 69.7875 22.1087 69.9062 22.0649 69.925C22.021 69.9375 21.902 69.9125 21.7955 69.875C21.3444 69.6875 21.6201 69.9 22.4721 70.3875C24.032 71.2937 24.7337 71.6 24.8841 71.45C24.9655 71.3687 25.4479 71.5937 25.8113 71.875C25.9303 71.9687 26.2185 72.0875 26.444 72.1437C26.6758 72.2 27.2396 72.3937 27.697 72.5687C30.1653 73.5062 30.5788 73.6312 30.8231 73.5C30.8983 73.4625 30.9484 73.4187 30.9359 73.4062C30.9297 73.3937 30.535 73.2937 30.0714 73.1875C28.9124 72.9062 28.9312 72.9125 29.0189 72.7187C29.1316 72.475 29.0251 72.425 28.3109 72.4062C27.4652 72.3875 26.9264 72.2062 25.2036 71.375C24.1448 70.8625 23.8754 70.7062 23.6875 70.4875C23.5622 70.3437 23.4431 70.1812 23.4181 70.1187C23.3742 70 22.1087 69.3625 21.6764 69.2437C21.4133 69.1687 20.2543 68.4937 19.8283 68.1687C19.6905 68.0562 19.5902 68.0312 19.4524 68.0562Z" fill="#FEFEFE"/>
<path d="M12.9056 69.1687C13.4444 69.65 14.1085 70.3187 14.3716 70.65C14.522 70.8437 14.948 71.1062 15.0106 71.0437C15.0169 71.0375 14.8477 70.8812 14.6222 70.7C14.4029 70.5187 14.2212 70.3437 14.2212 70.3125C14.2212 70.2812 14.2839 70.25 14.3591 70.2375C14.4781 70.225 14.3904 70.125 13.8453 69.6375C13.4882 69.3187 13.1625 69.0687 13.1249 69.0812C13.0936 69.0937 12.9432 69.025 12.7991 68.9312C12.3668 68.6312 12.4107 68.725 12.9056 69.1687Z" fill="#FEFEFE"/>
<path d="M66.37 69.2625C66.0442 69.5 65.4052 70.15 65.4052 70.2375C65.4052 70.2812 65.4491 70.4062 65.5055 70.5062C65.6182 70.725 65.6809 70.7 65.9816 70.2875C66.2071 69.9812 66.2134 69.85 66.0004 69.8875C65.9127 69.9062 65.8438 69.9 65.8438 69.8687C65.8438 69.8062 66.1507 69.5875 66.3136 69.5375C66.4452 69.5 66.7083 69.125 66.6081 69.125C66.5767 69.125 66.4702 69.1875 66.37 69.2625Z" fill="#FEFEFE"/>
<path d="M21.0625 70.075C21.1564 70.1563 21.407 70.3125 21.6263 70.425C21.9771 70.6125 22.0022 70.6188 21.8331 70.475C21.7328 70.3875 21.476 70.225 21.2692 70.1188C20.9497 69.9563 20.9184 69.95 21.0625 70.075Z" fill="#FEFEFE"/>
<path d="M15.2361 71.2625C15.2549 71.3063 15.4241 71.4688 15.6246 71.6188C15.8188 71.7625 16.2511 72.1375 16.5831 72.4438C16.959 72.7938 17.2033 72.9813 17.2284 72.9375C17.291 72.8375 17.6293 73.0188 18.6944 73.7188C19.183 74.0375 19.9411 74.4875 20.3921 74.725C20.9936 75.0375 21.169 75.1563 21.0875 75.1875C20.9998 75.2188 21.1314 75.3 21.5762 75.4875C21.9145 75.6313 22.2403 75.75 22.3029 75.75C22.3656 75.75 22.8668 75.9688 23.4181 76.2375C23.9694 76.5125 24.6585 76.825 24.9467 76.9375C25.2286 77.05 25.5794 77.1938 25.7173 77.25C26.2059 77.4625 28.6806 78.2563 29.802 78.5625C32.4583 79.2813 35.6596 79.7938 38.1844 79.9063C38.6354 79.925 39.312 79.9563 39.6879 79.975C40.4397 80.0063 40.5086 79.9188 39.7819 79.8438C39.5501 79.8188 39.3246 79.775 39.2744 79.7438C39.2243 79.7125 39.2181 79.6875 39.2494 79.6875C39.4248 79.6813 39.0928 79.5625 38.8986 79.5625C38.5164 79.5625 38.0904 79.4875 38.0904 79.4188C38.0904 79.3813 38.3974 79.3688 38.9675 79.3938C39.4749 79.4125 39.8446 79.4 39.8446 79.3688C39.8446 79.3375 39.8195 79.3125 39.7882 79.3125C39.7568 79.3125 39.6441 79.2375 39.5376 79.15C39.2494 78.9063 38.5978 78.8813 37.5203 79.0625C36.8938 79.1688 36.5242 79.1938 36.0668 79.175C35.7348 79.1563 35.4403 79.125 35.4153 79.1C35.3902 79.0813 35.4278 79.025 35.4905 78.975C35.6032 78.8938 35.597 78.8813 35.3652 78.8188C35.2273 78.7813 34.8953 78.7188 34.6259 78.6813C34.3565 78.65 33.9055 78.55 33.6235 78.4563C33.2351 78.3375 33.0346 78.3063 32.7903 78.3313C32.5084 78.3625 32.4583 78.35 32.4332 78.2438C32.4082 78.1563 32.3455 78.125 32.1889 78.125C31.9383 78.125 30.04 77.7438 29.3822 77.5625C29.1254 77.4938 28.5427 77.3375 28.0979 77.2188C27.6469 77.1 26.8324 76.8313 26.2811 76.6188C25.3163 76.25 24.9342 76.0813 25.2161 76.15C25.285 76.1625 25.4667 76.2 25.6233 76.2188C26.1245 76.2938 25.8238 76.1438 25.0657 75.9375C24.22 75.7125 24.0821 75.65 24.1761 75.5375C24.2325 75.475 24.0696 75.4 23.4431 75.1875C23.0046 75.0375 22.2528 74.7688 21.7767 74.5813C21.3005 74.4 20.8871 74.2625 20.8683 74.2875C20.8495 74.3063 20.9434 74.4188 21.0813 74.5375C21.2191 74.65 21.3068 74.75 21.2755 74.75C21.0938 74.75 19.6153 73.7875 19.6905 73.7125C19.703 73.6938 19.8346 73.7313 19.9787 73.7875C20.1227 73.8438 20.2606 73.875 20.2794 73.85C20.3483 73.7813 20.2668 73.75 19.5777 73.5625C19.0953 73.4375 18.8572 73.3375 18.7382 73.225C18.3811 72.8688 18.7821 72.9625 20.0726 73.5375C21.4321 74.15 21.0625 73.85 19.5526 73.1188C19.0577 72.8813 18.4563 72.5563 18.2245 72.4063C17.9864 72.25 17.7922 72.1438 17.7922 72.1625C17.7922 72.1813 17.9238 72.3313 18.0804 72.5C18.3122 72.7438 18.3498 72.8125 18.2558 72.8125C18.0929 72.8125 17.8173 72.6375 16.9465 71.975C16.0882 71.3188 15.9629 71.2313 16.0944 71.3938C16.2511 71.5938 16.1007 71.5875 15.6872 71.3875C15.2361 71.1625 15.2048 71.1563 15.2361 71.2625Z" fill="#FEFEFE"/>
<path d="M27.7534 71.55C27.7534 71.625 28.3297 71.75 28.6492 71.75C29.0063 71.75 28.8685 71.6562 28.3736 71.575C27.8787 71.4875 27.7534 71.4812 27.7534 71.55Z" fill="#FEFEFE"/>
<path d="M64.1648 71.6938C63.9017 71.8875 63.839 72.0063 64.0708 71.8875C64.1836 71.825 64.5094 71.5 64.4592 71.5C64.4405 71.5 64.3089 71.5875 64.1648 71.6938Z" fill="#FEFEFE"/>
<path d="M27.8035 72.1064C27.8473 72.1249 27.9037 72.1187 27.9225 72.1002C27.9476 72.0817 27.91 72.0632 27.8411 72.0694C27.7721 72.0694 27.7533 72.0879 27.8035 72.1064Z" fill="#FEFEFE"/>
<path d="M28.1167 72.1689C28.1605 72.1874 28.2169 72.1812 28.2357 72.1627C28.2608 72.1442 28.2232 72.1257 28.1543 72.1319C28.0854 72.1319 28.0666 72.1504 28.1167 72.1689Z" fill="#FEFEFE"/>
<path d="M35.7724 73.0063C35.7034 73.0563 35.6972 73.0813 35.7598 73.1063C35.8914 73.1563 35.7724 73.25 35.5656 73.25C35.315 73.2563 35.4466 73.3375 35.7912 73.4C36.0355 73.4438 36.0919 73.525 35.9227 73.5875C35.7974 73.6375 35.0268 73.6375 34.7762 73.5875C34.5382 73.5375 34.582 73.4375 34.8389 73.4375C34.9579 73.4375 35.0143 73.4125 34.9893 73.3688C34.9266 73.275 34.2688 73.325 34.2061 73.4313C34.1748 73.4938 33.943 73.5375 33.4293 73.5813C33.0283 73.6188 32.7026 73.6625 32.7026 73.6875C32.7026 73.7063 32.9657 73.775 33.2852 73.8375C34.9078 74.15 35.622 74.2563 36.4928 74.2875C37.4138 74.325 37.4388 74.325 37.6518 74.175C37.8648 74.025 37.8711 74.0125 37.8586 73.625C37.8523 73.4125 37.8272 73.2125 37.7959 73.1813C37.7395 73.125 36.3926 72.9375 36.0668 72.9375C35.954 72.9375 35.8225 72.9688 35.7724 73.0063Z" fill="#FEFEFE"/>
<path d="M60.1114 74.1813C60.0738 74.2125 59.842 74.35 59.5914 74.4875C59.1278 74.7313 59.084 74.8125 59.4035 74.8125C59.6165 74.8125 59.8984 74.7 60.2618 74.475C60.5124 74.3125 60.5249 74.3 60.4121 74.2188C60.2806 74.1125 60.1928 74.1063 60.1114 74.1813Z" fill="#FEFEFE"/>
<path d="M58.6078 74.8125C58.3948 75.0375 58.4136 75.0375 58.802 74.8687C59.0338 74.775 59.084 74.7312 59.015 74.6875C58.8647 74.5937 58.802 74.6125 58.6078 74.8125Z" fill="#FEFEFE"/>
<path d="M58.019 75.1938C57.8686 75.2625 57.7558 75.3313 57.7746 75.35C57.8373 75.4063 58.1255 75.3063 58.2382 75.1813C58.3635 75.0375 58.3698 75.0375 58.019 75.1938Z" fill="#FEFEFE"/>
<path d="M44.5244 75.7813C44.0921 75.875 44.042 75.9063 44.2675 75.9625C44.4367 76.0063 45.0131 75.85 45.0757 75.7438C45.1258 75.6688 44.9817 75.6813 44.5244 75.7813Z" fill="#FEFEFE"/>
<path d="M53.9531 76.75C53.0822 77.0562 52.2114 77.375 52.0172 77.4625C51.8293 77.55 51.5975 77.625 51.516 77.625C51.3657 77.625 50.5262 78.05 50.5763 78.1C50.5888 78.1187 50.7267 78.1 50.877 78.0687C51.7102 77.875 51.1339 78.175 50.1064 78.475C49.1291 78.75 47.9513 78.9937 47.3248 79.0375L46.8299 79.0687L47.5504 78.8125C48.6405 78.425 48.7532 78.3937 49.3484 78.275C49.8558 78.1812 50.1628 78.0625 49.9185 78.0625C49.8621 78.0625 49.8057 78.0312 49.7932 77.9937C49.7744 77.9437 49.5238 77.9812 48.9913 78.1125C47.5566 78.4687 46.0593 78.7062 43.3968 79C42.4696 79.1062 41.6739 79.1875 41.6238 79.1875C41.5674 79.1875 41.5486 79.2125 41.5674 79.25C41.5862 79.2812 41.7115 79.3125 41.8368 79.3125C42.244 79.3125 41.9621 79.4187 41.2542 79.5312C40.8783 79.5875 40.5149 79.6687 40.446 79.7C40.2142 79.825 40.4523 79.8625 41.0036 79.7812C41.3168 79.7437 41.724 79.7187 41.912 79.7312C42.0999 79.7437 42.4821 79.7312 42.7577 79.7L43.2589 79.65L43.0083 79.525L42.7577 79.4062L43.378 79.3875C43.829 79.375 44.0671 79.4 44.2425 79.4687C44.5746 79.6 45.1697 79.5875 46.0719 79.4312C46.4916 79.3625 47.0116 79.2812 47.2371 79.25C48.8221 79.05 52.5685 77.9687 54.9617 77.025C56.1834 76.5375 56.4089 76.375 55.8451 76.375C55.6133 76.375 55.5631 76.3562 55.5945 76.2812C55.6133 76.2312 55.607 76.1875 55.5819 76.1875C55.5569 76.1937 54.8239 76.4437 53.9531 76.75Z" fill="#FEFEFE"/>
<path d="M39.0302 78.5C39.0302 78.575 39.0803 78.575 39.2494 78.5C39.3622 78.45 39.3559 78.4437 39.2056 78.4437C39.1053 78.4375 39.0302 78.4625 39.0302 78.5Z" fill="#FEFEFE"/>
</g>
<defs>
<filter id="filter0_d_63_10" x="34.4667" y="26.167" width="21.6" height="26.6664" filterUnits="userSpaceOnUse" color-interpolation-filters="sRGB">
<feFlood flood-opacity="0" result="BackgroundImageFix"/>
<feColorMatrix in="SourceAlpha" type="matrix" values="0 0 0 0 0 0 0 0 0 0 0 0 0 0 0 0 0 0 127 0" result="hardAlpha"/>
<feOffset dx="2"/>
<feGaussianBlur stdDeviation="2"/>
<feComposite in2="hardAlpha" operator="out"/>
<feColorMatrix type="matrix" values="0 0 0 0 0.9875 0 0 0 0 0.0246875 0 0 0 0 0.0246875 0 0 0 0.8 0"/>
<feBlend mode="normal" in2="BackgroundImageFix" result="effect1_dropShadow_63_10"/>
<feBlend mode="normal" in="SourceGraphic" in2="effect1_dropShadow_63_10" result="shape"/>
</filter>
<clipPath id="clip0_63_10">
<rect width="79" height="80" fill="white"/>
</clipPath>
</defs>
</svg>
