<svg width="27" height="27" viewBox="0 0 27 27" fill="none" xmlns="http://www.w3.org/2000/svg">
<g clip-path="url(#clip0_7_97)">
<path d="M20.5263 26.2423C20.2957 26.2423 20.064 26.1845 19.8499 26.0674L13.4854 22.5928L7.12123 26.0674C6.62836 26.3362 6.04274 26.2918 5.59268 25.9525C5.14262 25.6128 4.92144 25.0479 5.01533 24.4789L6.23081 17.1195L1.08208 11.9076C0.683675 11.5043 0.542978 10.9124 0.714783 10.3626C0.886873 9.81318 1.33579 9.41991 1.88631 9.33692L9.00167 8.26348L12.1841 1.56795C12.4304 1.04961 12.9289 0.727753 13.4854 0.727753C13.4854 0.727753 13.4854 0.727753 13.4857 0.727753C14.042 0.727753 14.5405 1.04961 14.7868 1.56766L17.9689 8.26318L25.0843 9.33692C25.6351 9.41991 26.084 9.81289 26.2558 10.3626C26.4279 10.9121 26.2869 11.504 25.8885 11.9076L20.7398 17.1195L21.9555 24.4789C22.0494 25.0482 21.8283 25.6131 21.3782 25.9525C21.1236 26.1448 20.826 26.2423 20.5263 26.2423ZM2.6563 11.0179L7.52449 15.9459C7.86639 16.2918 8.02278 16.7906 7.94173 17.2802L6.79246 24.2386L12.8102 20.953C13.2329 20.7222 13.7377 20.7222 14.1607 20.953L20.1781 24.2386L19.0289 17.2799C18.9481 16.7911 19.1042 16.2921 19.4464 15.9459L24.3146 11.0179L17.5871 10.0026C17.1139 9.93084 16.7055 9.62262 16.4943 9.17777L13.4854 2.84707L10.4766 9.17807C10.2654 9.62262 9.85699 9.93084 9.38438 10.0026L2.6563 11.0179ZM24.838 11.0968H24.8411H24.838ZM13.2514 2.35451C13.2514 2.35451 13.2514 2.35481 13.2517 2.3551L13.2514 2.35451C13.2514 2.35481 13.2514 2.35481 13.2514 2.35451Z" fill="#E5C7C7"/>
</g>
<defs>
<clipPath id="clip0_7_97">
<rect width="26" height="27" fill="white" transform="translate(0.5)"/>
</clipPath>
</defs>
</svg>
