<svg width="33" height="27" viewBox="0 0 33 27" fill="none" xmlns="http://www.w3.org/2000/svg">
<path d="M2.38474 0.0700817C1.25029 0.302612 0.257944 1.41704 0.0710578 2.66113C0.0259358 2.9551 7.49815e-06 5.85405 7.49815e-06 11.1729C7.49815e-06 19.9241 -0.00639037 19.7533 0.354585 20.5052C0.561002 20.9428 1.08933 21.5514 1.45031 21.7768C2.14633 22.2076 1.618 22.1801 9.08804 22.2144L15.8877 22.2487L15.9068 23.9718L15.9196 25.7013L12.6197 25.7148L9.31332 25.7352L9.29412 26.3642L9.27459 27H16.4998H23.7251L23.7059 26.3642L23.6867 25.7352L20.3803 25.7148L17.0804 25.7013L17.0932 23.9718L17.1123 22.2487L23.912 22.2144C31.382 22.1801 30.8533 22.2076 31.5497 21.7768C31.9107 21.5511 32.439 20.9428 32.6454 20.5052C33.0064 19.7533 33 19.9241 33 11.1729C33 5.85405 32.9741 2.9551 32.9293 2.66113C32.7424 1.43061 31.8659 0.418699 30.7122 0.097229C30.3772 0.00828934 28.7336 -0.00528336 16.5005 0.00150299C8.8493 0.00864601 2.54603 0.0361481 2.38474 0.0700817ZM30.6536 1.39668C31.0533 1.57456 31.3692 1.89568 31.5753 2.33323L31.775 2.75007V11.0708C31.775 20.5263 31.8201 19.7876 31.2335 20.4031C30.6277 21.0389 32.0713 20.9842 16.5062 20.9842C1.32774 20.9842 2.41033 21.0185 1.882 20.5331C1.73384 20.4031 1.53382 20.1434 1.43078 19.9723L1.25669 19.6508L1.23749 11.2072L1.2247 2.76365L1.41798 2.33966C1.6308 1.88174 1.97224 1.53992 2.37194 1.38954C2.56523 1.31417 5.20789 1.3006 16.5194 1.29381C28.6814 1.29417 30.4536 1.30774 30.6536 1.39668Z" fill="#E5C7C7"/>
<path d="M13.4706 11.009C13.4706 13.559 13.477 15.651 13.4898 15.651C13.5026 15.651 15.1526 14.6459 17.1507 13.4222C19.1489 12.1988 20.8504 11.1594 20.9342 11.1119C21.076 11.0297 20.9086 10.9204 18.4529 9.41629C17.0093 8.5276 15.2947 7.48139 14.6502 7.08491L13.4706 6.36018V11.009Z" fill="#E5C7C7"/>
</svg>
