<svg width="31" height="27" viewBox="0 0 31 27" fill="none" xmlns="http://www.w3.org/2000/svg">
<g clip-path="url(#clip0_7_73)">
<path d="M2.57331 0.326176C1.53512 0.501945 0.574118 1.35434 0.372308 2.27936C0.289228 2.65655 0.289228 24.3267 0.372308 24.7142C0.574118 25.6597 1.52923 26.4916 2.62074 26.6725C3.0597 26.7449 27.9403 26.7449 28.3793 26.6725C29.4649 26.4916 30.42 25.6597 30.6277 24.7142C30.7108 24.3319 30.7108 2.66168 30.6277 2.27936C30.42 1.32869 29.4649 0.496815 28.3793 0.321045C27.9818 0.253815 2.95275 0.258945 2.57331 0.326176ZM5.05889 3.57617L6.00811 5.22964H4.10967H2.21123V3.91718C2.21123 2.55313 2.2351 2.40842 2.46636 2.18621C2.67995 1.98479 2.91121 1.92781 3.52842 1.92269H4.10967L5.05889 3.57617ZM12.6523 3.57617L13.6016 5.22964H11.7031H9.80468L8.85546 3.57617L7.90624 1.92269H9.80468H11.7031L12.6523 3.57617ZM20.2458 3.57617L21.195 5.22964H19.2966H17.3981L16.4489 3.57617L15.5 1.92296H17.3984H19.2969L20.2458 3.57617ZM27.8395 3.57617L28.7888 5.22964H26.8903H24.9919L24.0427 3.57617L23.0934 1.92269H24.9919H26.8903L27.8395 3.57617ZM28.7767 15.7135C28.759 24.5438 28.759 24.549 28.6344 24.6885C28.569 24.766 28.4385 24.8797 28.3495 24.9367L28.1892 25.0452H15.5H2.81046L2.65019 24.9367C2.56122 24.8797 2.43071 24.766 2.3653 24.6885C2.24068 24.549 2.24068 24.5438 2.22301 15.7135L2.21123 6.88313H15.5H28.7885L28.7767 15.7135Z" fill="#E5C7C7"/>
<path d="M10.487 10.8359C10.1903 10.9288 9.95318 11.1667 9.8701 11.4559C9.77524 11.7815 9.78113 20.1828 9.8701 20.5033C10.0124 20.9839 10.5227 21.2525 11.0745 21.144C11.2285 21.1129 13.667 20.0848 16.4967 18.8498C22.1622 16.3852 22.085 16.4214 22.085 15.977C22.085 15.5326 22.1681 15.5739 16.4195 13.0783C13.0678 11.6211 11.116 10.8049 10.9616 10.7841C10.8311 10.7738 10.6175 10.7946 10.487 10.8359Z" fill="#E5C7C7"/>
</g>
<defs>
<clipPath id="clip0_7_73">
<rect width="31" height="27" fill="white"/>
</clipPath>
</defs>
</svg>
