<svg width="27" height="27" viewBox="0 0 27 27" fill="none" xmlns="http://www.w3.org/2000/svg">
<g clip-path="url(#clip0_7_78)">
<path d="M25.9905 0.297441C25.7341 0.0665183 25.3938 -0.0371571 25.0578 0.0123603L8.66704 2.44399C8.09022 2.52957 7.66183 3.04257 7.66183 3.64764V8.51084V17.9022C6.96837 17.4826 6.16333 17.241 5.30452 17.241C2.71352 17.241 0.605652 19.43 0.605652 22.1206C0.605652 24.8112 2.71352 27.0002 5.30452 27.0002C7.89553 27.0002 10.0034 24.8112 10.0034 22.1206V9.56531L24.0527 7.48105V15.4706C23.3592 15.051 22.5542 14.8095 21.6954 14.8095C19.1044 14.8095 16.9965 16.9985 16.9965 19.6891C16.9965 22.3797 19.1044 24.5687 21.6954 24.5687C24.2864 24.5687 26.3943 22.3797 26.3943 19.6891V6.07916V1.21597C26.3941 0.86349 26.2469 0.528364 25.9905 0.297441ZM5.30447 24.5686C4.00468 24.5686 2.94717 23.4704 2.94717 22.1206C2.94717 20.7708 4.00468 19.6726 5.30447 19.6726C6.60427 19.6726 7.66178 20.7708 7.66178 22.1206C7.66178 23.4704 6.60427 24.5686 5.30447 24.5686ZM24.0526 5.02469L10.0033 7.10895V4.70206L24.0526 2.6178V5.02469ZM21.6953 22.1369C20.3955 22.1369 19.338 21.0387 19.338 19.689C19.338 18.3392 20.3955 17.241 21.6953 17.241C22.9951 17.241 24.0526 18.3392 24.0526 19.689C24.0526 21.0387 22.9951 22.1369 21.6953 22.1369Z" fill="#E5C7C7"/>
</g>
<defs>
<clipPath id="clip0_7_78">
<rect width="26" height="27" fill="white" transform="translate(0.5)"/>
</clipPath>
</defs>
</svg>
