<?xml version="1.0" encoding="utf-8"?>
<!-- Svg Vector Icons : http://www.onlinewebfonts.com/icon -->
<!DOCTYPE svg PUBLIC "-//W3C//DTD SVG 1.1//EN" "http://www.w3.org/Graphics/SVG/1.1/DTD/svg11.dtd">
<svg version="1.1" xmlns="http://www.w3.org/2000/svg" xmlns:xlink="http://www.w3.org/1999/xlink" x="0px" y="0px" viewBox="0 0 1000 1000" enable-background="new 0 0 1000 1000" xml:space="preserve">
<metadata> Svg Vector Icons : http://www.onlinewebfonts.com/icon </metadata>
<g><g transform="translate(0.000000,395.000000) scale(0.100000,-0.100000)"><path d="M808.2,2710c-336.9-65.1-631.6-377.1-687.1-725.4c-13.4-82.3-21.1-893.9-21.1-2383c0-2450-1.9-2402.2,105.3-2612.7c61.3-122.5,218.2-292.9,325.4-356c206.7-120.6,49.8-112.9,2268.2-122.5l2019.3-9.6l5.7-482.4l3.8-484.2l-980-3.8l-981.9-5.7l-5.7-176.1l-5.8-178H5000h2145.7l-5.7,178l-5.7,176.1l-981.9,5.7l-980,3.8l3.8,484.2l5.7,482.4l2019.3,9.6c2218.4,9.6,2061.4,1.9,2268.2,122.5c107.2,63.2,264.1,233.5,325.4,356c107.2,210.5,105.3,162.7,105.3,2612.7c0,1489.1-7.7,2300.7-21,2383c-55.5,344.5-315.8,627.8-658.4,717.8c-99.5,24.9-587.6,28.7-4220.5,26.8C2728,2727.2,856.1,2719.5,808.2,2710z M9203.3,2338.6c118.7-49.8,212.5-139.7,273.7-262.2l59.3-116.7V-369.8c0-2647.2,13.4-2440.4-160.8-2612.7c-179.9-178,248.8-162.7-4373.6-162.7c-4507.6,0-4186.1-9.6-4343,126.3c-44,36.4-103.4,109.1-134,157l-51.7,90L467.5-408l-3.8,2363.9l57.4,118.7c63.2,128.2,164.6,223.9,283.3,266c57.4,21.1,842.2,24.9,4201.4,26.8C8617.6,2367.3,9143.9,2363.5,9203.3,2338.6z"/><path d="M4100.4-352.5c0-713.9,1.9-1299.6,5.7-1299.6s493.8,281.4,1087.2,624C5786.7-685.6,6292-394.6,6316.9-381.3c42.1,23-7.6,53.6-736.9,474.7c-428.7,248.8-937.9,541.7-1129.3,652.7L4100.4,949V-352.5z"/></g></g>
</svg>